<svg xmlns="http://www.w3.org/2000/svg"><defs><font id="unicons" horiz-adv-x="1000"><font-face font-family="unicons" font-weight="400" ascent="850" descent="-150"/><glyph glyph-name="0-plus" unicode="" d="M750 642h42v-42a42 42 0 0 1 83 0v42h42a42 42 0 0 1 0 83h-42v42a42 42 0 0 1-83 0v-42h-42a42 42 0 0 1 0-83zm-229-42h-42a125 125 0 0 1-125-125V225a125 125 0 0 1 125-125h42a125 125 0 0 1 125 125v250a125 125 0 0 1-125 125zm42-375a42 42 0 0 0-42-42h-42a42 42 0 0 0-41 42v250a42 42 0 0 0 41 42h42a42 42 0 0 0 42-42zm337 250a42 42 0 0 1-32-49 375 375 0 1 0-292 292 42 42 0 1 1 17 83 450 450 0 0 1-93 7 458 458 0 1 1 458-458 450 450 0 0 1-9 92 42 42 0 0 1-49 33z" horiz-adv-x="1000"/><glyph glyph-name="10-plus" unicode="" d="M750 642h42v-42a42 42 0 0 1 83 0v42h42a42 42 0 0 1 0 83h-42v42a42 42 0 0 1-83 0v-42h-42a42 42 0 0 1 0-83zM458 475V225a125 125 0 0 1 125-125h42a125 125 0 0 1 125 125v250a125 125 0 0 1-125 125h-42a125 125 0 0 1-125-125zm209 0V225a42 42 0 0 0-42-42h-42a42 42 0 0 0-41 42v250a42 42 0 0 0 41 42h42a42 42 0 0 0 42-42zm233 0a42 42 0 0 1-32-49 375 375 0 1 0-292 292 42 42 0 1 1 17 83 450 450 0 0 1-93 7 458 458 0 1 1 458-458 450 450 0 0 1-9 92 42 42 0 0 1-49 33zm-608 83V142a42 42 0 0 1 83 0v416a42 42 0 0 1-83 0z" horiz-adv-x="1000"/><glyph glyph-name="12-plus" unicode="" d="M458 475a42 42 0 0 1 84 0 42 42 0 0 0 41 42h42a42 42 0 0 0 42-42v-42a42 42 0 0 0-42-41h-42a125 125 0 0 1-125-125V142a42 42 0 0 1 42-42h208a42 42 0 0 1 0 83H542v84a42 42 0 0 0 41 41h42a125 125 0 0 1 125 125v42a125 125 0 0 1-125 125h-42a125 125 0 0 1-125-125zm292 167h42v-42a42 42 0 0 1 83 0v42h42a42 42 0 0 1 0 83h-42v42a42 42 0 0 1-83 0v-42h-42a42 42 0 0 1 0-83zm-458-84V142a42 42 0 0 1 83 0v416a42 42 0 0 1-83 0zm608-83a42 42 0 0 1-33-49 375 375 0 1 0-291 292 42 42 0 1 1 16 83 450 450 0 0 1-92 7 458 458 0 1 1 458-458 450 450 0 0 1-9 92 42 42 0 0 1-49 33z" horiz-adv-x="1000"/><glyph glyph-name="13-plus" unicode="" d="M750 642h42v-42a42 42 0 0 1 83 0v42h42a42 42 0 0 1 0 83h-42v42a42 42 0 0 1-83 0v-42h-42a42 42 0 0 1 0-83zM458 475a42 42 0 0 1 84 0 42 42 0 0 0 41 42h42a42 42 0 0 0 42-42v-42a42 42 0 0 0-42-41h-21a42 42 0 0 1 0-84h21a42 42 0 0 0 42-41v-42a42 42 0 0 0-42-42h-42a42 42 0 0 0-41 42 42 42 0 0 1-84 0 125 125 0 0 1 125-125h42a125 125 0 0 1 125 125v42a125 125 0 0 1-32 83 125 125 0 0 1 32 83v42a125 125 0 0 1-125 125h-42a125 125 0 0 1-125-125zm-166 83V142a42 42 0 0 1 83 0v416a42 42 0 0 1-83 0zm608-83a42 42 0 0 1-33-49 375 375 0 1 0-291 292 42 42 0 1 1 16 83 450 450 0 0 1-92 7 458 458 0 1 1 458-458 450 450 0 0 1-9 92 42 42 0 0 1-49 33z" horiz-adv-x="1000"/><glyph glyph-name="16-plus" unicode="" d="M750 642h42v-42a42 42 0 0 1 83 0v42h42a42 42 0 0 1 0 83h-42v42a42 42 0 0 1-83 0v-42h-42a42 42 0 0 1 0-83zm150-167a42 42 0 0 1-32-49 375 375 0 1 0-292 292 42 42 0 1 1 17 83 450 450 0 0 1-93 7 458 458 0 1 1 458-458 450 450 0 0 1-9 92 42 42 0 0 1-49 33zm-608 83V142a42 42 0 0 1 83 0v416a42 42 0 0 1-83 0zm166-83V225a125 125 0 0 1 125-125h42a125 125 0 0 1 125 125v42a125 125 0 0 1-125 125h-83v83a42 42 0 0 0 41 42h42a42 42 0 0 0 42-42 42 42 0 0 1 83 0 125 125 0 0 1-125 125h-42a125 125 0 0 1-125-125zm167-167a42 42 0 0 0 42-41v-42a42 42 0 0 0-42-42h-42a42 42 0 0 0-41 42v83z" horiz-adv-x="1000"/><glyph glyph-name="17-plus" unicode="" d="M458 558v-83a42 42 0 0 1 84 0v42h116l-75-367a42 42 0 0 1 34-50h8a42 42 0 0 1 42 33l83 417a42 42 0 0 1-9 35 42 42 0 0 1-33 15H500a42 42 0 0 1-42-42zm292 84h42v-42a42 42 0 0 1 83 0v42h42a42 42 0 0 1 0 83h-42v42a42 42 0 0 1-83 0v-42h-42a42 42 0 0 1 0-83zm-458-84V142a42 42 0 0 1 83 0v416a42 42 0 0 1-83 0zm608-83a42 42 0 0 1-33-49 375 375 0 1 0-291 292 42 42 0 1 1 16 83 450 450 0 0 1-92 7 458 458 0 1 1 458-458 450 450 0 0 1-9 92 42 42 0 0 1-49 33z" horiz-adv-x="1000"/><glyph glyph-name="18-plus" unicode="" d="M750 642h42v-42a42 42 0 0 1 83 0v42h42a42 42 0 0 1 0 83h-42v42a42 42 0 0 1-83 0v-42h-42a42 42 0 0 1 0-83zm-458-84V142a42 42 0 0 1 83 0v416a42 42 0 0 1-83 0zm608-83a42 42 0 0 1-33-49 375 375 0 1 0-291 292 42 42 0 1 1 16 83 450 450 0 0 1-92 7 458 458 0 1 1 458-458 450 450 0 0 1-9 92 42 42 0 0 1-49 33zm-442 0v-42a125 125 0 0 1 33-83 125 125 0 0 1-33-83v-42a125 125 0 0 1 125-125h42a125 125 0 0 1 125 125v42a125 125 0 0 1-33 83 125 125 0 0 1 33 83v42a125 125 0 0 1-125 125h-42a125 125 0 0 1-125-125zm209-250a42 42 0 0 0-42-42h-42a42 42 0 0 0-41 42v42a42 42 0 0 0 41 41h42a42 42 0 0 0 42-41zm0 250v-42a42 42 0 0 0-42-41h-42a42 42 0 0 0-41 41v42a42 42 0 0 0 41 42h42a42 42 0 0 0 42-42z" horiz-adv-x="1000"/><glyph glyph-name="21-plus" unicode="" d="M708 100a42 42 0 0 1 42 42v416a42 42 0 0 1-83 0V142a42 42 0 0 1 41-42zm42 542h42v-42a42 42 0 0 1 83 0v42h42a42 42 0 0 1 0 83h-42v42a42 42 0 0 1-83 0v-42h-42a42 42 0 0 1 0-83zm150-167a42 42 0 0 1-33-49 375 375 0 1 0-291 292 42 42 0 1 1 16 83 450 450 0 0 1-92 7 458 458 0 1 1 458-458 450 450 0 0 1-9 92 42 42 0 0 1-49 33zM417 308h41a125 125 0 0 1 125 125v42a125 125 0 0 1-125 125h-41a125 125 0 0 1-125-125 42 42 0 0 1 83 0 42 42 0 0 0 42 42h41a42 42 0 0 0 42-42v-42a42 42 0 0 0-42-41h-41a125 125 0 0 1-125-125V142a42 42 0 0 1 41-42h209a42 42 0 0 1 0 83H375v84a42 42 0 0 0 42 41z" horiz-adv-x="1000"/><glyph glyph-name="3-plus" unicode="" d="M750 642h42v-42a42 42 0 0 1 83 0v42h42a42 42 0 0 1 0 83h-42v42a42 42 0 0 1-83 0v-42h-42a42 42 0 0 1 0-83zM646 475a125 125 0 0 1-125 125h-42a125 125 0 0 1-125-125 42 42 0 0 1 84 0 42 42 0 0 0 41 42h42a42 42 0 0 0 42-42v-42a42 42 0 0 0-42-41h-21a42 42 0 0 1 0-84h21a42 42 0 0 0 42-41v-42a42 42 0 0 0-42-42h-42a42 42 0 0 0-41 42 42 42 0 0 1-84 0 125 125 0 0 1 125-125h42a125 125 0 0 1 125 125v42a125 125 0 0 1-33 83 125 125 0 0 1 33 83zm254 0a42 42 0 0 1-32-49 375 375 0 1 0-292 292 42 42 0 1 1 17 83 450 450 0 0 1-93 7 458 458 0 1 1 458-458 450 450 0 0 1-9 92 42 42 0 0 1-49 33z" horiz-adv-x="1000"/><glyph glyph-name="500" unicode="" d="M292 219a59 59 0 0 1 7-18 262 262 0 0 1 58-87 278 278 0 0 1 87-58 259 259 0 0 1 106-22 262 262 0 0 1 106 22 276 276 0 0 1 86 58 266 266 0 0 1 59 87 273 273 0 0 1 19 107 282 282 0 0 1-21 107 265 265 0 0 1-59 86 269 269 0 0 1-193 80 276 276 0 0 1-107-23 295 295 0 0 1-50-28 297 297 0 0 1-48-39v224h378c9 0 14 9 14 26s-6 26-15 26H311a15 15 0 0 1-12-6 17 17 0 0 1-5-12V433a16 16 0 0 1 7-12 45 45 0 0 1 17-8 30 30 0 0 1 18 0 38 38 0 0 1 10 5 42 42 0 0 1 6 7 288 288 0 0 0 35 42 215 215 0 0 0 158 65 215 215 0 0 0 159-67 215 215 0 0 0 66-157 221 221 0 0 0-17-83 223 223 0 0 0-121-125 225 225 0 0 0-86-17 212 212 0 0 0-112 32v193a111 111 0 0 0 29 75 105 105 0 0 0 84 37 110 110 0 0 0 83-33 106 106 0 0 0 31-79 114 114 0 0 0-115-114h-14l-16 3h-6c-9 3-15-4-20-20s-3-25 5-28a181 181 0 0 1 53-8 160 160 0 0 1 116 49 159 159 0 0 1 49 118 155 155 0 0 1-49 116 158 158 0 0 1-116 48 161 161 0 0 1-118-48 149 149 0 0 1-47-108V158a235 235 0 0 0-45 77c-4 9-13 11-28 6s-23-12-20-21zm260 459a340 340 0 0 1-139-27 10 10 0 0 1-10-9 53 53 0 0 1 4-18c6-15 13-20 21-17a337 337 0 0 0 122 23 314 314 0 0 0 128-27 361 361 0 0 0 97-61 10 10 0 0 1 7-4c4 0 10 5 18 12l8 8a15 15 0 0 1 2 9 12 12 0 0 1-4 8 359 359 0 0 1-109 71 375 375 0 0 1-147 32zm-67-413a19 19 0 0 1 8-14 22 22 0 0 1 15-8 10 10 0 0 1 7 3l30 30 30-28a12 12 0 0 1 8-5 24 24 0 0 1 15 8c9 9 10 16 3 23l-29 29 31 31c5 5 3 12-6 21s-16 11-22 5l-30-30-30 31a12 12 0 0 1-6 2 23 23 0 0 1-14-8c-10-9-12-16-7-21l31-31-31-30a15 15 0 0 1-5-8zM815 74a52 52 0 0 1-15 11 12 12 0 0 1-12-3l-3-3A333 333 0 0 0 681 8a331 331 0 0 0-362 71 312 312 0 0 0-73 104 389 389 0 0 0-21 74c0 9-10 12-26 10s-24-9-22-17a355 355 0 0 1 25-88 368 368 0 0 1 83-120 375 375 0 0 1 120-83 380 380 0 0 1 148-30 387 387 0 0 1 147 30 375 375 0 0 1 121 83l2 3c4 9 1 18-10 29z" horiz-adv-x="1000"/><glyph glyph-name="6-plus" unicode="" d="M750 642h42v-42a42 42 0 0 1 83 0v42h42a42 42 0 0 1 0 83h-42v42a42 42 0 0 1-83 0v-42h-42a42 42 0 0 1 0-83zM479 517h42a42 42 0 0 0 42-42 42 42 0 0 1 83 0 125 125 0 0 1-125 125h-42a125 125 0 0 1-125-125V225a125 125 0 0 1 125-125h42a125 125 0 0 1 125 125v42a125 125 0 0 1-125 125h-83v83a42 42 0 0 0 41 42zm42-209a42 42 0 0 0 42-41v-42a42 42 0 0 0-42-42h-42a42 42 0 0 0-41 42v83zm379 167a42 42 0 0 1-32-49 375 375 0 1 0-292 292 42 42 0 1 1 17 83 450 450 0 0 1-93 7 458 458 0 1 1 458-458 450 450 0 0 1-9 92 42 42 0 0 1-49 33z" horiz-adv-x="1000"/><glyph glyph-name="abacus" unicode="" d="M875 767a42 42 0 0 1-42-42V600H667v42a42 42 0 0 1-84 0v-42h-83v42a42 42 0 0 1-83 0v-42h-84v42a42 42 0 0 1-83 0v-42h-83v125a42 42 0 0 1-84 0V58A125 125 0 0 1 208-67h584A125 125 0 0 1 917 58v667a42 42 0 0 1-42 42zM833 58a42 42 0 0 0-41-41H208a42 42 0 0 0-41 41v125h83v-41a42 42 0 0 1 83 0v41h84v-41a42 42 0 0 1 83 0v41h167v-41a42 42 0 0 1 83 0v41h83zm0 209h-83v41a42 42 0 0 1-83 0v-41H500v41a42 42 0 0 1-83 0v-41h-84v41a42 42 0 0 1-83 0v-41h-83v250h83v-42a42 42 0 0 1 83 0v42h84v-42a42 42 0 0 1 83 0v42h83v-42a42 42 0 0 1 84 0v42h166z" horiz-adv-x="1000"/><glyph glyph-name="accessible-icon-alt" unicode="" d="M667 558a83 83 0 1 1-84 84 83 83 0 0 1 84-84zM529 83a167 167 0 1 0-152 267 42 42 0 1 1-9 83 250 250 0 0 1 28-500A250 250 0 0 1 596 33a42 42 0 0 1-67 50zm284-66h-42v208a42 42 0 0 1-42 42H539l70 194v13a46 46 0 0 1 0 7 44 44 0 0 1 0 8 58 58 0 0 1-4 7 30 30 0 0 1-4 6 27 27 0 0 1-6 6s0 2-4 3L405 619h-5a44 44 0 0 1-8 2h-17a33 33 0 0 1-8-3h-5l-112-65a42 42 0 0 1 20-78 42 42 0 0 1 22 5l93 55 135-79-79-217a37 37 0 0 1 0-6 24 24 0 0 1 0-8 125 125 0 0 1 3-16l5-6a24 24 0 0 1 4-7 28 28 0 0 1 6-3 51 51 0 0 1 8-5 42 42 0 0 1 14-3h209V-23a42 42 0 0 1 41-42h84a42 42 0 0 1 0 83z" horiz-adv-x="1000"/><glyph glyph-name="adjust-alt" unicode="" d="M868 545a8 8 0 0 1 0 3 417 417 0 0 1-141 152 412 412 0 0 1-227 67 42 42 0 0 1-42-42V-25a42 42 0 0 1 42-42h12a417 417 0 0 1 356 612zM542 681a333 333 0 0 0 103-31L542 470zm0-378 173 301a329 329 0 0 0 66-76L542 113zm48-273 233 403a348 348 0 0 0 10-83A331 331 0 0 0 590 30z" horiz-adv-x="1000"/><glyph glyph-name="adjust-circle" unicode="" d="M708 558a323 323 0 1 1-416-416 323 323 0 1 1 416 416zm-66-66a255 255 0 0 0 4-48 247 247 0 0 0-6-56L538 489a247 247 0 0 0 56 7 255 255 0 0 0 47-5zm-39-184a250 250 0 0 0-61-60L397 392a250 250 0 0 0 61 61zm-334-60a240 240 0 1 0 334 333h-11a323 323 0 0 1-321-325v-10zm88-38a255 255 0 0 0-5 48 247 247 0 0 0 7 56l101-101a247 247 0 0 0-56-7 255 255 0 0 0-45 3zM594 17a240 240 0 0 0-198 104h10a323 323 0 0 1 323 323v10A240 240 0 0 0 594 17z" horiz-adv-x="1000"/><glyph glyph-name="adjust-half" unicode="" d="M868 545a421 421 0 0 1-143 155A417 417 0 1 1 500-67h12a417 417 0 0 1 356 612zM458 20a333 333 0 0 0 0 660zm84 660a336 336 0 0 0 103-30L542 470zm0-375 173 299a339 339 0 0 0 66-76L542 113zm48-274 232 402a340 340 0 0 0 11-83A333 333 0 0 0 590 29z" horiz-adv-x="1000"/><glyph glyph-name="adjust" unicode="" d="M500 767a417 417 0 1 1 417-417 417 417 0 0 1-417 417zM458 20a333 333 0 0 0 0 660zm84 0v660a333 333 0 0 0 0-660z" horiz-adv-x="1000"/><glyph glyph-name="adobe" unicode="" d="M378 130h116l73-143h106L500 439zM83 725V-25l310 750zm520 0L917-17v742z" horiz-adv-x="1000"/><glyph glyph-name="airplay" unicode="" d="M535 290a42 42 0 0 1-70 0L299 40a42 42 0 0 1 0-42 42 42 0 0 1 34-23h334a42 42 0 0 1 36 22 42 42 0 0 1-2 42zM411 58l89 134 89-134zm381 667H208A125 125 0 0 1 83 600V225a125 125 0 0 1 125-125h36a42 42 0 1 1 0 83h-36a42 42 0 0 0-41 42v375a42 42 0 0 0 41 42h584a42 42 0 0 0 41-42V225a42 42 0 0 0-41-42h-36a42 42 0 0 1 0-83h36a125 125 0 0 1 125 125v375a125 125 0 0 1-125 125z" horiz-adv-x="1000"/><glyph glyph-name="align-alt" unicode="" d="M417 392H125a42 42 0 0 1 0-84h292a42 42 0 0 1 0 84zm0-334H125a42 42 0 0 1 0-83h292a42 42 0 0 1 0 83zm166 584h292a42 42 0 0 1 0 83H583a42 42 0 0 1 0-83zm-166-84H125a42 42 0 0 1 0-83h292a42 42 0 0 1 0 83zm0-333H125a42 42 0 0 1 0-83h292a42 42 0 0 1 0 83zm0 500H292a42 42 0 0 1 0-83h125a42 42 0 0 1 0 83zm458-167H583a42 42 0 0 1 0-83h292a42 42 0 0 1 0 83zm0-166H583a42 42 0 0 1 0-84h292a42 42 0 0 1 0 84zM708 58H583a42 42 0 0 1 0-83h125a42 42 0 0 1 0 83zm167 167H583a42 42 0 0 1 0-83h292a42 42 0 0 1 0 83z" horiz-adv-x="1000"/><glyph glyph-name="align-center-alt" unicode="" d="M208 517h584a42 42 0 0 1 0 83H208a42 42 0 0 1 0-83zm667-125H125a42 42 0 0 1 0-84h750a42 42 0 0 1 0 84zm-83-209H208a42 42 0 0 1 0-83h584a42 42 0 0 1 0 83z" horiz-adv-x="1000"/><glyph glyph-name="align-center-h" unicode="" d="M913 366a42 42 0 0 1-8 14L800 484a42 42 0 0 1-59-59l34-33H667a42 42 0 0 1 0-84h108l-34-33a42 42 0 0 1 0-59 42 42 0 0 1 59 0l105 104a42 42 0 0 1 8 14 42 42 0 0 1 0 32zm-580 26H225l34 33a42 42 0 0 1-59 59L95 380a42 42 0 0 1-8-14 42 42 0 0 1 0-32 42 42 0 0 1 8-14l105-104a42 42 0 0 1 59 0 42 42 0 0 1 0 59l-34 33h108a42 42 0 0 1 0 84zm167 166a42 42 0 0 1-42-41V183a42 42 0 0 1 84 0v334a42 42 0 0 1-42 41z" horiz-adv-x="1000"/><glyph glyph-name="align-center-justify" unicode="" d="M875 225H125a42 42 0 0 1 0-83h750a42 42 0 0 1 0 83zM125 642h750a42 42 0 0 1 0 83H125a42 42 0 0 1 0-83zM708 58H292a42 42 0 0 1 0-83h416a42 42 0 0 1 0 83zm167 500H125a42 42 0 0 1 0-83h750a42 42 0 0 1 0 83zm0-166H125a42 42 0 0 1 0-84h750a42 42 0 0 1 0 84z" horiz-adv-x="1000"/><glyph glyph-name="align-center-v" unicode="" d="m425 591 33 34V517a42 42 0 0 1 84 0v108l33-34a42 42 0 0 1 59 0 42 42 0 0 1 0 59L530 755a42 42 0 0 1-14 8 42 42 0 0 1-32 0 42 42 0 0 1-14-8L366 650a42 42 0 0 1 59-59zm242-199H333a42 42 0 0 1 0-84h334a42 42 0 0 1 0 84zm-92-283-33-34v108a42 42 0 0 1-84 0V75l-33 34a42 42 0 0 1-59-59L470-55a42 42 0 0 1 14-8 39 39 0 0 1 32 0 42 42 0 0 1 14 8L634 50a42 42 0 0 1-59 59z" horiz-adv-x="1000"/><glyph glyph-name="align-center" unicode="" d="M125 558h750a42 42 0 0 1 0 84H125a42 42 0 0 1 0-84zm167-83a42 42 0 0 1 0-83h416a42 42 0 0 1 0 83zm583-167H125a42 42 0 0 1 0-83h750a42 42 0 0 1 0 83zM708 142H292a42 42 0 0 1 0-84h416a42 42 0 0 1 0 84z" horiz-adv-x="1000"/><glyph glyph-name="align-justify" unicode="" d="M125 558h750a42 42 0 0 1 0 84H125a42 42 0 0 1 0-84zm750-416H125a42 42 0 0 1 0-84h750a42 42 0 0 1 0 84zm0 166H125a42 42 0 0 1 0-83h750a42 42 0 0 1 0 83zm0 167H125a42 42 0 0 1 0-83h750a42 42 0 0 1 0 83z" horiz-adv-x="1000"/><glyph glyph-name="align-left-justify" unicode="" d="M125 642h750a42 42 0 0 1 0 83H125a42 42 0 0 1 0-83zM625 58H125a42 42 0 0 1 0-83h500a42 42 0 0 1 0 83zm250 334H125a42 42 0 0 1 0-84h750a42 42 0 0 1 0 84zm0 166H125a42 42 0 0 1 0-83h750a42 42 0 0 1 0 83zm0-333H125a42 42 0 0 1 0-83h750a42 42 0 0 1 0 83z" horiz-adv-x="1000"/><glyph glyph-name="align-left" unicode="" d="M125 558h750a42 42 0 0 1 0 84H125a42 42 0 0 1 0-84zm0-166h583a42 42 0 0 1 0 83H125a42 42 0 0 1 0-83zm750-84H125a42 42 0 0 1 0-83h750a42 42 0 0 1 0 83zM708 142H125a42 42 0 0 1 0-84h583a42 42 0 0 1 0 84z" horiz-adv-x="1000"/><glyph glyph-name="align-letter-right" unicode="" d="M417 683h458a42 42 0 0 1 0 84H417a42 42 0 0 1 0-84zM875 17H125a42 42 0 0 1 0-84h750a42 42 0 0 1 0 84zm0 583H125a42 42 0 0 1 0-83h750a42 42 0 0 1 0 83zm0-417H458a42 42 0 0 1 0-83h417a42 42 0 0 1 0 83zm0 250H125a42 42 0 0 1 0-83h750a42 42 0 0 1 0 83z" horiz-adv-x="1000"/><glyph glyph-name="align-right-justify" unicode="" d="M125 642h750a42 42 0 0 1 0 83H125a42 42 0 0 1 0-83zM875 58H458a42 42 0 0 1 0-83h417a42 42 0 0 1 0 83zm0 334H125a42 42 0 0 1 0-84h750a42 42 0 0 1 0 84zm0-167H125a42 42 0 0 1 0-83h750a42 42 0 0 1 0 83zm0 333H125a42 42 0 0 1 0-83h750a42 42 0 0 1 0 83z" horiz-adv-x="1000"/><glyph glyph-name="align-right" unicode="" d="M125 558h750a42 42 0 0 1 0 84H125a42 42 0 0 1 0-84zm750-416H292a42 42 0 0 1 0-84h583a42 42 0 0 1 0 84zm0 333H292a42 42 0 0 1 0-83h583a42 42 0 0 1 0 83zm0-167H125a42 42 0 0 1 0-83h750a42 42 0 0 1 0 83z" horiz-adv-x="1000"/><glyph glyph-name="align" unicode="" d="M125 225h417a42 42 0 0 1 0 83H125a42 42 0 0 1 0-83zm0 167h417a42 42 0 0 1 0 83H125a42 42 0 0 1 0-83zm0 166h750a42 42 0 0 1 0 84H125a42 42 0 0 1 0-84zm750-416H125a42 42 0 0 1 0-84h750a42 42 0 0 1 0 84zm-57 309a42 42 0 1 1-53-64l45-37-45-37a42 42 0 0 1-5-59 42 42 0 0 1 32-15 42 42 0 0 1 26 10l84 69a42 42 0 0 1 0 64z" horiz-adv-x="1000"/><glyph glyph-name="ambulance" unicode="" d="M438 454h-42v42a42 42 0 0 1-83 0v-42h-42a42 42 0 0 1 0-83h42v-42a42 42 0 0 1 83 0v42h42a42 42 0 0 1 0 83zm517-89-2 4a25 25 0 0 1-3 6L850 508a125 125 0 0 1-100 50h-83v42a125 125 0 0 1-125 125H167A125 125 0 0 1 42 600V142a42 42 0 0 1 41-42h42a125 125 0 0 1 250 0h250a125 125 0 0 1 250 0h42a42 42 0 0 1 41 42v208a42 42 0 0 1-3 15zM250 58a42 42 0 1 0 42 42 42 42 0 0 0-42-42zm333 125H343a125 125 0 0 1-185 0h-33v417a42 42 0 0 0 42 42h375a42 42 0 0 0 41-42zm84 292h83a42 42 0 0 0 33-17l50-66H667zm83-417a42 42 0 1 0 42 42 42 42 0 0 0-42-42zm125 125h-32a125 125 0 0 1-176 10v115h208z" horiz-adv-x="1000"/><glyph glyph-name="analysis" unicode="" d="M905 546a42 42 0 0 1-60 0L583 284 405 463a42 42 0 0 1-60 0L95 213a42 42 0 0 1 0-59 42 42 0 0 1 60 0l220 221 179-180a42 42 0 0 1 59 0l292 292a42 42 0 0 1 0 59z" horiz-adv-x="1000"/><glyph glyph-name="analytics" unicode="" d="M208 350a42 42 0 0 1-41-42V-25a42 42 0 0 1 83 0v333a42 42 0 0 1-42 42zm209 417a42 42 0 0 1-42-42V-25a42 42 0 0 1 83 0v750a42 42 0 0 1-41 42zm416-584a42 42 0 0 1-41-41V-25a42 42 0 0 1 83 0v167a42 42 0 0 1-42 41zM625 517a42 42 0 0 1-42-42V-25a42 42 0 0 1 84 0v500a42 42 0 0 1-42 42z" horiz-adv-x="1000"/><glyph glyph-name="anchor" unicode="" d="M792 308h-84a42 42 0 0 1 0-83h38A250 250 0 0 0 542 20v372h41a42 42 0 0 1 0 83h-41v49a125 125 0 1 1-84 0v-49h-41a42 42 0 0 1 0-83h41V20a250 250 0 0 0-204 205h38a42 42 0 0 1 0 83h-84a42 42 0 0 1-41-41 333 333 0 0 1 666 0 42 42 0 0 1-41 41zM500 600a42 42 0 1 0 42 42 42 42 0 0 0-42-42z" horiz-adv-x="1000"/><glyph glyph-name="android-phone-slash" unicode="" d="M470 112a42 42 0 0 1 60 0 48 48 0 0 1 8 14 39 39 0 0 1 0 32 48 48 0 0 1-8 13 42 42 0 0 1-60 0 48 48 0 0 1-8-13 39 39 0 0 1 0-32 48 48 0 0 1 8-14zM361 683h306a42 42 0 0 0 41-41V336a42 42 0 0 1 84 0v306a125 125 0 0 1-125 125H361a42 42 0 0 1 0-84zM905 5 155 755a42 42 0 0 1-60-60l113-112V58A125 125 0 0 1 333-67h334a125 125 0 0 1 115 77l63-65a42 42 0 0 1 60 0 42 42 0 0 1 0 60zM708 58a42 42 0 0 0-41-41H333a42 42 0 0 0-41 41v442L708 83z" horiz-adv-x="1000"/><glyph glyph-name="angle-double-down" unicode="" d="M470 373a42 42 0 0 1 60 0l125 125a42 42 0 1 1-60 60l-95-97-95 97a42 42 0 1 1-60-60zm125-45-95-96-95 96a42 42 0 0 1-60-61l125-125a42 42 0 0 1 60 0l125 125a42 42 0 0 1-60 59z" horiz-adv-x="1000"/><glyph glyph-name="angle-double-left" unicode="" d="M478 505a42 42 0 0 1-60 0L293 380a42 42 0 0 1 0-60l125-125a42 42 0 0 1 60 0 42 42 0 0 1 0 60l-96 95 95 95a42 42 0 0 1 0 60zm133-155 97 95a42 42 0 0 1-59 60L524 380a42 42 0 0 1 0-60l125-125a42 42 0 0 1 59 0 42 42 0 0 1 0 60z" horiz-adv-x="1000"/><glyph glyph-name="angle-double-right" unicode="" d="M353 505a42 42 0 1 1-61-60l97-95-97-95a42 42 0 0 1 0-60 42 42 0 0 1 59 0l125 125a42 42 0 0 1 0 60zm354-125L582 505a42 42 0 0 1-59-60l95-95-95-95a42 42 0 0 1 0-60 42 42 0 0 1 59 0l125 125a42 42 0 0 1 1 60z" horiz-adv-x="1000"/><glyph glyph-name="angle-double-up" unicode="" d="M530 328a42 42 0 0 1-60 0L345 203a42 42 0 0 1 60-61l95 97 95-97a42 42 0 0 1 60 0 42 42 0 0 1 0 59zm-125 45 95 95 95-95a42 42 0 0 1 60 0 42 42 0 0 1 0 59L530 557a42 42 0 0 1-60 0L345 432a42 42 0 0 1 60-59z" horiz-adv-x="1000"/><glyph glyph-name="angle-down" unicode="" d="M708 468a42 42 0 0 1-58 0L500 320 353 468a42 42 0 0 1-59 0 42 42 0 0 1 0-59l176-177a42 42 0 0 1 60 0l178 177a42 42 0 0 1 0 59z" horiz-adv-x="1000"/><glyph glyph-name="angle-left" unicode="" d="m470 350 148 148a42 42 0 0 1 0 58 42 42 0 0 1-59 0L382 380a42 42 0 0 1 0-60l177-178a42 42 0 0 1 29-12 42 42 0 0 1 30 12 42 42 0 0 1 0 58z" horiz-adv-x="1000"/><glyph glyph-name="angle-right-b" unicode="" d="M647 380 412 615a42 42 0 0 1-59 0 42 42 0 0 1 0-59l206-208-206-206a42 42 0 0 1 0-59 42 42 0 0 1 29-13 42 42 0 0 1 30 13l236 235a42 42 0 0 1 0 62z" horiz-adv-x="1000"/><glyph glyph-name="angle-right" unicode="" d="M618 380 441 556a42 42 0 0 1-59 0 42 42 0 0 1 0-58l148-148-148-147a42 42 0 0 1 0-59 42 42 0 0 1 30-12 42 42 0 0 1 29 12l177 176a42 42 0 0 1 0 60z" horiz-adv-x="1000"/><glyph glyph-name="angle-up" unicode="" d="M708 291 530 468a42 42 0 0 1-60 0L294 291a42 42 0 0 1 0-59 42 42 0 0 1 59 0l147 148 148-148a42 42 0 0 1 29-12 42 42 0 0 1 29 12 42 42 0 0 1 2 59z" horiz-adv-x="1000"/><glyph glyph-name="angry" unicode="" d="M417 392a42 42 0 0 1 37 23 42 42 0 0 1-19 55l-83 42a42 42 0 1 1-37-74l83-42a39 39 0 0 1 19-4zm83 375a417 417 0 1 1 417-417 417 417 0 0 1-417 417zm0-750a333 333 0 1 0 333 333A333 333 0 0 0 500 17zM348 211a42 42 0 0 1-5-58 42 42 0 0 1 59-5 157 157 0 0 0 196 0 42 42 0 0 1 27-10 42 42 0 0 1 27 73 242 242 0 0 1-304 0zm300 301-83-42a42 42 0 0 1-19-55 42 42 0 0 1 37-23 39 39 0 0 1 19 4l83 42a42 42 0 0 1-37 74z" horiz-adv-x="1000"/><glyph glyph-name="ankh" unicode="" d="M750 350H621a301 301 0 0 1 87 208 208 208 0 0 1-416 0 301 301 0 0 1 87-208H250a42 42 0 0 1 0-83h208V-25a42 42 0 0 1 84 0v292h208a42 42 0 0 1 0 83zm-250 7c-39 26-125 94-125 201a125 125 0 0 0 250 0c0-107-86-176-125-201z" horiz-adv-x="1000"/><glyph glyph-name="annoyed-alt" unicode="" d="m611 285-175-62a42 42 0 0 1 14-81 42 42 0 0 1 14 2l175 63a42 42 0 1 1-28 78zM444 493a42 42 0 0 1-59 0 42 42 0 0 0-59 0 42 42 0 0 1-58 0 42 42 0 0 1 0-59 125 125 0 0 1 176 0 42 42 0 0 1-2 60zm292 0a42 42 0 0 1-59 0 42 42 0 0 0-59 0 42 42 0 0 1-59 0 42 42 0 0 1 0-59 125 125 0 0 1 177 0 42 42 0 0 1-2 60zM500 767a417 417 0 1 1 417-417 417 417 0 0 1-417 417zm0-750a333 333 0 1 0 333 333A333 333 0 0 0 500 17z" horiz-adv-x="1000"/><glyph glyph-name="annoyed" unicode="" d="M375 475a42 42 0 1 1 42-42 42 42 0 0 1-42 42zm250-167a208 208 0 0 1-182-107 42 42 0 0 1 15-56 42 42 0 0 1 21-6 42 42 0 0 1 36 21 125 125 0 0 0 110 65 42 42 0 0 1 0 83zm0 167a42 42 0 1 1 42-42 42 42 0 0 1-42 42zM500 767a417 417 0 1 1 417-417 417 417 0 0 1-417 417zm0-750a333 333 0 1 0 333 333A333 333 0 0 0 500 17z" horiz-adv-x="1000"/><glyph glyph-name="apple" unicode="" d="M623 634a182 182 0 0 1 44 133 185 185 0 0 1-125-64 174 174 0 0 1-42-128 154 154 0 0 1 122 59zm105-310a188 188 0 0 0 90 159 194 194 0 0 1-153 83c-65 7-125-38-160-38s-83 37-137 36a205 205 0 0 1-173-105c-73-128-18-317 55-420 33-51 75-108 130-106s73 35 137 35 83-35 137-33 93 51 128 102a458 458 0 0 1 57 118 184 184 0 0 0-111 169z" horiz-adv-x="1000"/><glyph glyph-name="apps" unicode="" d="M417 308H125a42 42 0 0 1-42-41V-25a42 42 0 0 1 42-42h292a42 42 0 0 1 41 42v292a42 42 0 0 1-41 41zM375 17H167v208h208zm500 750H583a42 42 0 0 1-41-42V433a42 42 0 0 1 41-41h292a42 42 0 0 1 42 41v292a42 42 0 0 1-42 42zm-42-292H625v208h208zm42-167H583a42 42 0 0 1-41-41V-25a42 42 0 0 1 41-42h292a42 42 0 0 1 42 42v292a42 42 0 0 1-42 41zM833 17H625v208h208zM417 767H125a42 42 0 0 1-42-42V433a42 42 0 0 1 42-41h292a42 42 0 0 1 41 41v292a42 42 0 0 1-41 42zm-42-292H167v208h208z" horiz-adv-x="1000"/><glyph glyph-name="archive-alt" unicode="" d="M417 308h166a42 42 0 0 1 0 84H417a42 42 0 0 1 0-84zm375 417H208a125 125 0 0 1-41-242V100A125 125 0 0 1 292-25h416a125 125 0 0 1 125 125v383a125 125 0 0 1-41 242zm-42-625a42 42 0 0 0-42-42H292a42 42 0 0 0-42 42v375h500zm42 458H208a42 42 0 0 0 0 84h584a42 42 0 0 0 0-84z" horiz-adv-x="1000"/><glyph glyph-name="archive" unicode="" d="M417 267h166a42 42 0 0 1 0 83H417a42 42 0 0 1 0-83zm375 458H208A125 125 0 0 1 83 600V475a42 42 0 0 1 42-42h42V100A125 125 0 0 1 292-25h416a125 125 0 0 1 125 125v333h42a42 42 0 0 1 42 42v125a125 125 0 0 1-125 125zm-42-625a42 42 0 0 0-42-42H292a42 42 0 0 0-42 42v333h500zm83 417H167v83a42 42 0 0 0 41 42h584a42 42 0 0 0 41-42z" horiz-adv-x="1000"/><glyph glyph-name="archway" unicode="" d="M917 17h-42v500h42a42 42 0 0 1 0 83h-42v125a42 42 0 0 1-42 42H167a42 42 0 0 1-42-42V600H83a42 42 0 0 1 0-83h42V17H83a42 42 0 0 1 0-84h834a42 42 0 0 1 0 84zm-292 0H375v147a259 259 0 0 0 125 222 259 259 0 0 0 125-222zm167 0h-84v147a340 340 0 0 1-189 306 42 42 0 0 1-38 0 340 340 0 0 1-189-306V17h-84v500h584zm0 583H208v83h584z" horiz-adv-x="1000"/><glyph glyph-name="arrow-break" unicode="" d="M292 392h416a42 42 0 0 1 0 83H542v150l33-34a42 42 0 0 1 59 0 42 42 0 0 1 0 59L530 755a42 42 0 0 1-14 8 42 42 0 0 1-32 0 42 42 0 0 1-14-8L366 650a42 42 0 0 1 59-59l33 34V475H292a42 42 0 0 1 0-83zm416-84H292a42 42 0 0 1 0-83h166V75l-33 34a42 42 0 0 1-59-59L470-55a42 42 0 0 1 14-8 39 39 0 0 1 32 0 42 42 0 0 1 14 8L634 50a42 42 0 0 1-59 59l-33-34v150h166a42 42 0 0 1 0 83z" horiz-adv-x="1000"/><glyph glyph-name="arrow-circle-down" unicode="" d="M470 195a42 42 0 0 1 14-8 42 42 0 0 1 32 0 42 42 0 0 1 14 8l125 125a42 42 0 0 1-60 60l-53-55v150a42 42 0 0 1-84 0V325l-53 55a42 42 0 0 1-60 0 42 42 0 0 1 0-60zm30-262A417 417 0 1 1 83 350 417 417 0 0 1 500-67zm0 750a333 333 0 1 0-333-333 333 333 0 0 0 333 333z" horiz-adv-x="1000"/><glyph glyph-name="arrow-circle-left" unicode="" d="M345 380a42 42 0 0 1-8-14 42 42 0 0 1 0-32 42 42 0 0 1 8-14l125-125a42 42 0 0 1 60 60l-55 53h150a42 42 0 0 1 0 84H475l55 53a42 42 0 0 1 0 60 42 42 0 0 1-60 0zM83 350a417 417 0 1 1 417 417A417 417 0 0 1 83 350zm750 0a333 333 0 1 0-333 333 333 333 0 0 0 333-333z" horiz-adv-x="1000"/><glyph glyph-name="arrow-circle-right" unicode="" d="M655 320a42 42 0 0 1 8 14 42 42 0 0 1 0 32 42 42 0 0 1-8 14L530 505a42 42 0 0 1-60-60l55-53H375a42 42 0 0 1 0-84h150l-55-53a42 42 0 0 1 0-60 42 42 0 0 1 60 0zm262 30A417 417 0 1 1 500-67a417 417 0 0 1 417 417zm-750 0A333 333 0 1 0 500 17a333 333 0 0 0-333 333z" horiz-adv-x="1000"/><glyph glyph-name="arrow-circle-up" unicode="" d="M530 505a42 42 0 0 1-14 8 42 42 0 0 1-32 0 42 42 0 0 1-14-8L345 380a42 42 0 0 1 60-60l53 55V225a42 42 0 0 1 84 0v150l53-55a42 42 0 0 1 60 0 42 42 0 0 1 0 60zm-30 262a417 417 0 1 1 417-417 417 417 0 0 1-417 417zm0-750a333 333 0 1 0 333 333A333 333 0 0 0 500 17z" horiz-adv-x="1000"/><glyph glyph-name="arrow-compress-h" unicode="" d="M500 642a42 42 0 0 1-42-42V100a42 42 0 0 1 84 0v500a42 42 0 0 1-42 42zm-54-262L342 484a42 42 0 1 1-59-59l33-33H125a42 42 0 0 1 0-84h191l-33-33a42 42 0 0 1 0-59 42 42 0 0 1 59 0l104 104a42 42 0 0 1 9 14 39 39 0 0 1 0 32 42 42 0 0 1-9 14zm429 12H684l33 33a42 42 0 0 1-59 59L554 380a42 42 0 0 1 0-60l104-104a42 42 0 0 1 59 0 42 42 0 0 1 0 59l-33 33h191a42 42 0 0 1 0 84z" horiz-adv-x="1000"/><glyph glyph-name="arrow-down-left" unicode="" d="M708 183H392l346 346a42 42 0 1 1-59 59L333 242v316a42 42 0 0 1-83 0V142a42 42 0 0 1 3-16 42 42 0 0 1 23-23 42 42 0 0 1 16-3h416a42 42 0 0 1 0 83z" horiz-adv-x="1000"/><glyph glyph-name="arrow-down-right" unicode="" d="M708 600a42 42 0 0 1-41-42V242L321 588a42 42 0 0 1-59-59l346-346H292a42 42 0 0 1 0-83h416a42 42 0 0 1 16 3 42 42 0 0 1 23 23 42 42 0 0 1 3 16v416a42 42 0 0 1-42 42z" horiz-adv-x="1000"/><glyph glyph-name="arrow-down" unicode="" d="M738 380a42 42 0 0 1-59 0L542 242v316a42 42 0 0 1-84 0V242L321 380a42 42 0 0 1-59-60l208-208a42 42 0 0 1 14-9 39 39 0 0 1 32 0 42 42 0 0 1 14 9l208 208a42 42 0 0 1 0 60z" horiz-adv-x="1000"/><glyph glyph-name="arrow-from-right" unicode="" d="M125 683a42 42 0 0 1-42-41V58a42 42 0 0 1 84 0v584a42 42 0 0 1-42 41zm788-317a42 42 0 0 1-8 14L738 546a42 42 0 1 1-59-59l96-95H292a42 42 0 0 1 0-84h483l-96-95a42 42 0 0 1 0-59 42 42 0 0 1 59 0l167 166a42 42 0 0 1 8 14 42 42 0 0 1 0 32z" horiz-adv-x="1000"/><glyph glyph-name="arrow-from-top" unicode="" d="m637 171-95-96v483a42 42 0 0 1-84 0V75l-95 96a42 42 0 1 1-59-59L470-55a42 42 0 0 1 14-8 39 39 0 0 1 32 0 42 42 0 0 1 14 8l166 167a42 42 0 0 1-59 59zm155 596H208a42 42 0 0 1 0-84h584a42 42 0 0 1 0 84z" horiz-adv-x="1000"/><glyph glyph-name="arrow-growth" unicode="" d="M913 574a42 42 0 0 1-22 23 42 42 0 0 1-16 3H667a42 42 0 0 1 0-83h108L542 284 405 421a42 42 0 0 1-60 0L95 171a42 42 0 0 1 0-59 42 42 0 0 1 60 0l220 221 137-138a42 42 0 0 1 59 0l262 263V350a42 42 0 0 1 84 0v208a42 42 0 0 1-4 16z" horiz-adv-x="1000"/><glyph glyph-name="arrow-left" unicode="" d="M708 392H392l138 137a42 42 0 1 1-60 59L262 380a42 42 0 0 1-9-14 42 42 0 0 1 0-32 42 42 0 0 1 9-14l208-208a42 42 0 0 1 60 0 42 42 0 0 1 0 59L392 308h316a42 42 0 0 1 0 84z" horiz-adv-x="1000"/><glyph glyph-name="arrow-random" unicode="" d="M362 433a42 42 0 0 1 59 0 42 42 0 0 1 0 59L160 755a42 42 0 0 1-59-60zm513-166a42 42 0 0 1-42-42V75L643 267a42 42 0 0 1-60-60L775 17H625a42 42 0 0 1 0-84h250a42 42 0 0 1 16 4 42 42 0 0 1 22 22 42 42 0 0 1 4 16v250a42 42 0 0 1-42 42zm38 474a42 42 0 0 1-22 22 42 42 0 0 1-16 4H625a42 42 0 0 1 0-84h150L95 5a42 42 0 0 1 0-60 42 42 0 0 1 60 0l678 680V475a42 42 0 0 1 84 0v250a42 42 0 0 1-4 16z" horiz-adv-x="1000"/><glyph glyph-name="arrow-resize-diagonal" unicode="" d="M913 741a42 42 0 0 1-22 22 42 42 0 0 1-16 4H625a42 42 0 0 1 0-84h150L167 75v150a42 42 0 0 1-84 0V-25a42 42 0 0 1 4-16 42 42 0 0 1 22-22 42 42 0 0 1 16-4h250a42 42 0 0 1 0 84H225l608 608V475a42 42 0 0 1 84 0v250a42 42 0 0 1-4 16z" horiz-adv-x="1000"/><glyph glyph-name="arrow-right" unicode="" d="M747 366a42 42 0 0 1-9 14L530 588a42 42 0 0 1-60-59l138-137H292a42 42 0 0 1 0-84h316L470 171a42 42 0 0 1 0-59 42 42 0 0 1 60 0l208 208a42 42 0 0 1 9 14 42 42 0 0 1 0 32z" horiz-adv-x="1000"/><glyph glyph-name="arrow-to-bottom" unicode="" d="M792 17H208a42 42 0 0 1 0-84h584a42 42 0 0 1 0 84zm-322 95a42 42 0 0 1 14-9 39 39 0 0 1 32 0 42 42 0 0 1 14 9l166 167a42 42 0 0 1-59 59l-95-96v483a42 42 0 0 1-84 0V242l-95 96a42 42 0 1 1-59-59z" horiz-adv-x="1000"/><glyph glyph-name="arrow-to-right" unicode="" d="M738 380 571 546a42 42 0 1 1-59-59l96-95H125a42 42 0 0 1 0-84h483l-96-95a42 42 0 0 1 0-59 42 42 0 0 1 59 0l167 166a42 42 0 0 1 9 14 42 42 0 0 1 0 32 42 42 0 0 1-9 14zm137 303a42 42 0 0 1-42-41V58a42 42 0 0 1 84 0v584a42 42 0 0 1-42 41z" horiz-adv-x="1000"/><glyph glyph-name="arrow-up-left" unicode="" d="M392 517h316a42 42 0 0 1 0 83H292a42 42 0 0 1-16-3 42 42 0 0 1-23-23 42 42 0 0 1-3-16V142a42 42 0 0 1 83 0v316l346-346a42 42 0 0 1 59 0 42 42 0 0 1 0 59z" horiz-adv-x="1000"/><glyph glyph-name="arrow-up-right" unicode="" d="M747 574a42 42 0 0 1-23 23 42 42 0 0 1-16 3H292a42 42 0 0 1 0-83h316L262 171a42 42 0 0 1 0-59 42 42 0 0 1 59 0l346 346V142a42 42 0 0 1 83 0v416a42 42 0 0 1-3 16z" horiz-adv-x="1000"/><glyph glyph-name="arrow-up" unicode="" d="M738 380 530 588a42 42 0 0 1-14 9 42 42 0 0 1-32 0 42 42 0 0 1-14-9L262 380a42 42 0 0 1 59-60l137 138V142a42 42 0 0 1 84 0v316l137-138a42 42 0 0 1 59 0 42 42 0 0 1 0 60z" horiz-adv-x="1000"/><glyph glyph-name="arrows-h-alt" unicode="" d="M913 366a42 42 0 0 1-8 14L800 484a42 42 0 0 1-59-59l34-33H583a42 42 0 0 1 0-84h192l-34-33a42 42 0 0 1 0-59 42 42 0 0 1 59 0l105 104a42 42 0 0 1 8 14 42 42 0 0 1 0 32zm-496 26H225l34 33a42 42 0 0 1-59 59L95 380a42 42 0 0 1-8-14 42 42 0 0 1 0-32 42 42 0 0 1 8-14l105-104a42 42 0 0 1 59 0 42 42 0 0 1 0 59l-34 33h192a42 42 0 0 1 0 84z" horiz-adv-x="1000"/><glyph glyph-name="arrows-h" unicode="" d="M913 366a42 42 0 0 1-8 14L738 546a42 42 0 1 1-59-59l96-95H225l96 95a42 42 0 1 1-59 59L95 380a42 42 0 0 1-8-14 42 42 0 0 1 0-32 42 42 0 0 1 8-14l167-166a42 42 0 0 1 59 0 42 42 0 0 1 0 59l-96 95h550l-96-95a42 42 0 0 1 0-59 42 42 0 0 1 59 0l167 166a42 42 0 0 1 8 14 42 42 0 0 1 0 32z" horiz-adv-x="1000"/><glyph glyph-name="arrows-left-down" unicode="" d="M905 171a42 42 0 0 1-60 0l-95-96v400a125 125 0 0 1-125 125H225l96 95a42 42 0 0 1-59 60L95 588a42 42 0 0 1-8-14 42 42 0 0 1 0-31 42 42 0 0 1 8-14l167-167a42 42 0 0 1 59 0 42 42 0 0 1 0 59l-96 96h400a42 42 0 0 0 42-42V75l-96 96a42 42 0 0 1-59-59L679-55a42 42 0 0 1 14-8 39 39 0 0 1 31 0 42 42 0 0 1 14 8l167 167a42 42 0 0 1 0 59z" horiz-adv-x="1000"/><glyph glyph-name="arrows-maximize" unicode="" d="M875 267a42 42 0 0 1-42-42V75L225 683h150a42 42 0 0 1 0 84H125a42 42 0 0 1-16-4 42 42 0 0 1-22-22 42 42 0 0 1-4-16V475a42 42 0 0 1 84 0v150L775 17H625a42 42 0 0 1 0-84h250a42 42 0 0 1 16 4 42 42 0 0 1 22 22 42 42 0 0 1 4 16v250a42 42 0 0 1-42 42z" horiz-adv-x="1000"/><glyph glyph-name="arrows-merge" unicode="" d="M446 380 342 484a42 42 0 1 1-59-59l33-33H167v166a42 42 0 0 1-84 0V142a42 42 0 0 1 84 0v166h149l-33-33a42 42 0 0 1 0-59 42 42 0 0 1 59 0l104 104a42 42 0 0 1 9 14 42 42 0 0 1 0 32 42 42 0 0 1-9 14zm429 220a42 42 0 0 1-42-42V392H684l33 33a42 42 0 0 1-59 59L554 380a42 42 0 0 1-9-14 42 42 0 0 1 0-32 42 42 0 0 1 9-14l104-104a42 42 0 0 1 59 0 42 42 0 0 1 0 59l-33 33h149V142a42 42 0 0 1 84 0v416a42 42 0 0 1-42 42z" horiz-adv-x="1000"/><glyph glyph-name="arrows-resize-h" unicode="" d="M417 600a42 42 0 0 1-42-42V392H225l34 33a42 42 0 0 1-59 59L95 380a42 42 0 0 1-8-14 42 42 0 0 1 0-32 42 42 0 0 1 8-14l105-104a42 42 0 0 1 59 0 42 42 0 0 1 0 59l-34 33h150V142a42 42 0 0 1 83 0v416a42 42 0 0 1-41 42zm496-234a42 42 0 0 1-8 14L800 484a42 42 0 0 1-59-59l34-33H625v166a42 42 0 0 1-83 0V142a42 42 0 0 1 83 0v166h150l-34-33a42 42 0 0 1 0-59 42 42 0 0 1 59 0l105 104a42 42 0 0 1 8 14 42 42 0 0 1 0 32z" horiz-adv-x="1000"/><glyph glyph-name="arrows-resize-v" unicode="" d="M667 392H542v233l33-34a42 42 0 0 1 59 0 42 42 0 0 1 0 59L530 755a42 42 0 0 1-14 8 42 42 0 0 1-32 0 42 42 0 0 1-14-8L366 650a42 42 0 0 1 59-59l33 34V392H333a42 42 0 0 1 0-84h125V75l-33 34a42 42 0 0 1-59-59L470-55a42 42 0 0 1 14-8 39 39 0 0 1 32 0 42 42 0 0 1 14 8L634 50a42 42 0 0 1-59 59l-33-34v233h125a42 42 0 0 1 0 84z" horiz-adv-x="1000"/><glyph glyph-name="arrows-resize" unicode="" d="M913 366a42 42 0 0 1-8 14L800 484a42 42 0 0 1-59-59l34-33H542v125a42 42 0 0 1-84 0V392H225l34 33a42 42 0 0 1-59 59L95 380a42 42 0 0 1-8-14 42 42 0 0 1 0-32 42 42 0 0 1 8-14l105-104a42 42 0 0 1 59 0 42 42 0 0 1 0 59l-34 33h233V183a42 42 0 0 1 84 0v125h233l-34-33a42 42 0 0 1 0-59 42 42 0 0 1 59 0l105 104a42 42 0 0 1 8 14 42 42 0 0 1 0 32z" horiz-adv-x="1000"/><glyph glyph-name="arrows-right-down" unicode="" d="M872 574a42 42 0 0 1-9 14L738 713a42 42 0 0 1-59-59l54-54H375a125 125 0 0 1-125-125V117l-54 54a42 42 0 0 1-59-59L262-13a42 42 0 0 1 14-9 39 39 0 0 1 32 0 42 42 0 0 1 13 9l125 125a42 42 0 0 1-59 59l-54-54v358a42 42 0 0 0 42 42h358l-54-54a42 42 0 0 1 0-59 42 42 0 0 1 59 0l125 125a42 42 0 0 1 9 14 42 42 0 0 1 0 31z" horiz-adv-x="1000"/><glyph glyph-name="arrows-shrink-h" unicode="" d="M738 380 634 484a42 42 0 0 1-59-59l33-33H392l33 33a42 42 0 0 1-59 59L262 380a42 42 0 0 1-9-14 42 42 0 0 1 0-32 42 42 0 0 1 9-14l104-104a42 42 0 0 1 59 0 42 42 0 0 1 0 59l-33 33h216l-33-33a42 42 0 0 1 0-59 42 42 0 0 1 59 0l104 104a42 42 0 0 1 9 14 42 42 0 0 1 0 32 42 42 0 0 1-9 14zM125 600a42 42 0 0 1-42-42V142a42 42 0 0 1 84 0v416a42 42 0 0 1-42 42zm750 0a42 42 0 0 1-42-42V142a42 42 0 0 1 84 0v416a42 42 0 0 1-42 42z" horiz-adv-x="1000"/><glyph glyph-name="arrows-shrink-v" unicode="" d="M575 425a42 42 0 0 1 59 0 42 42 0 0 1 0 59L530 588a42 42 0 0 1-14 9 42 42 0 0 1-32 0 42 42 0 0 1-14-9L366 484a42 42 0 0 1 59-59l33 33V242l-33 33a42 42 0 0 1-59-59l104-104a42 42 0 0 1 14-9 39 39 0 0 1 32 0 42 42 0 0 1 14 9l104 104a42 42 0 0 1-59 59l-33-33v216zM292 683h416a42 42 0 0 1 0 84H292a42 42 0 0 1 0-84zM708 17H292a42 42 0 0 1 0-84h416a42 42 0 0 1 0 84z" horiz-adv-x="1000"/><glyph glyph-name="arrows-up-right" unicode="" d="M872 158a42 42 0 0 1-9 13L738 296a42 42 0 0 1-59-59l54-54H375a42 42 0 0 0-42 42v358l54-54a42 42 0 0 1 59 0 42 42 0 0 1 0 59L321 713a42 42 0 0 1-13 9 42 42 0 0 1-32 0 42 42 0 0 1-14-9L137 588a42 42 0 0 1 59-59l54 54V225a125 125 0 0 1 125-125h358l-54-54a42 42 0 0 1 0-59 42 42 0 0 1 59 0l125 125a42 42 0 0 1 9 14 42 42 0 0 1 0 32z" horiz-adv-x="1000"/><glyph glyph-name="arrows-v-alt" unicode="" d="m425 591 33 34V433a42 42 0 0 1 84 0v192l33-34a42 42 0 0 1 59 0 42 42 0 0 1 0 59L530 755a42 42 0 0 1-14 8 42 42 0 0 1-32 0 42 42 0 0 1-14-8L366 650a42 42 0 0 1 59-59zm150-482-33-34v192a42 42 0 0 1-84 0V75l-33 34a42 42 0 0 1-59-59L470-55a42 42 0 0 1 14-8 39 39 0 0 1 32 0 42 42 0 0 1 14 8L634 50a42 42 0 0 1-59 59z" horiz-adv-x="1000"/><glyph glyph-name="arrows-v" unicode="" d="m637 171-95-96v550l95-96a42 42 0 0 1 59 0 42 42 0 0 1 0 59L530 755a42 42 0 0 1-14 8 42 42 0 0 1-32 0 42 42 0 0 1-14-8L304 588a42 42 0 1 1 59-59l95 96V75l-95 96a42 42 0 1 1-59-59L470-55a42 42 0 0 1 14-8 39 39 0 0 1 32 0 42 42 0 0 1 14 8l166 167a42 42 0 0 1-59 59z" horiz-adv-x="1000"/><glyph glyph-name="assistive-listening-systems" unicode="" d="M458 725a292 292 0 0 1-291-292 42 42 0 0 1 83 0 208 208 0 0 0 417 0 211 211 0 0 0-30-107L489 17a83 83 0 0 0-72-42 83 83 0 0 0-84 83 42 42 0 0 1-83 0 167 167 0 0 1 167-166 167 167 0 0 1 146 86l148 310a289 289 0 0 1 39 145 292 292 0 0 1-292 292zM167 225a42 42 0 1 1 41-42 42 42 0 0 1-41 42zm566 575a42 42 0 1 1-50-67 375 375 0 0 0 150-300 42 42 0 0 1 84 0 461 461 0 0 1-184 367zM458 475a42 42 0 0 0 42-42 42 42 0 0 1 83 0 125 125 0 0 1-250 0 125 125 0 0 1 22-70 146 146 0 0 1 19-22l9-9a42 42 0 0 0 0-47 42 42 0 0 1 10-57 42 42 0 0 1 24-8 42 42 0 0 1 34 18 125 125 0 0 1 0 141 141 141 0 0 1-15 18l-6 5a57 57 0 0 0-6 8 42 42 0 0 0-7 23 42 42 0 0 0 41 42zM292 225a42 42 0 1 1-42 42 42 42 0 0 1 42-42z" horiz-adv-x="1000"/><glyph glyph-name="asterisk" unicode="" d="M773 240 583 350l190 110a42 42 0 0 1-41 72L542 422v220a42 42 0 0 1-84 0V422L268 532a42 42 0 0 1-41-72l190-110-190-110a42 42 0 0 1 41-72l190 110V58a42 42 0 0 1 84 0v220l190-110a42 42 0 0 1 41 72z" horiz-adv-x="1000"/><glyph glyph-name="at" unicode="" d="M500 767A417 417 0 1 1 708-11a42 42 0 1 1-41 72 333 333 0 1 0 166 289v-31a73 73 0 0 0-145 0v177a42 42 0 0 1-42 42 42 42 0 0 1-42-33 185 185 0 0 1-104 33 188 188 0 1 1 138-313 156 156 0 0 1 279 94v31a417 417 0 0 1-417 417zm0-521a104 104 0 1 0 104 104 104 104 0 0 0-104-104z" horiz-adv-x="1000"/><glyph glyph-name="atm-card" unicode="" d="M292 225h125a42 42 0 0 1 0 83H292a42 42 0 0 1 0-83zm500 417H208A125 125 0 0 1 83 517V142A125 125 0 0 1 208 17h584a125 125 0 0 1 125 125v375a125 125 0 0 1-125 125zm41-500a42 42 0 0 0-41-42H208a42 42 0 0 0-41 42v250h666zm0 333H167v42a42 42 0 0 0 41 41h584a42 42 0 0 0 41-41z" horiz-adv-x="1000"/><glyph glyph-name="atom" unicode="" d="M500 392a42 42 0 1 1 42-42 42 42 0 0 1-42 42zm318-42 4 6c56 77 70 149 39 202s-100 78-194 68h-8c-38 87-94 141-159 141s-121-54-159-142l-8 1c-94 10-163-14-194-68s-17-125 39-202l5-6-5-6c-56-77-70-149-39-202 28-46 81-70 153-70 13 0 26 0 41 2h8c38-86 94-141 159-141S621-13 659 75h7c14 0 28-2 42-2 74 0 128 24 154 70 31 54 18 125-39 202zM211 517c11 18 42 28 84 28h20a616 616 0 0 1-15-78 625 625 0 0 1-60-52c-32 42-41 81-29 102zm0-334c-12 21 0 60 28 103a625 625 0 0 1 61-52 623 623 0 0 1 14-78c-52-4-91 6-103 27zm289 500c23 0 51-27 75-76a733 733 0 0 1-75-26 733 733 0 0 1-75 26c24 49 52 76 75 76zm0-666c-23 0-51 27-75 76a733 733 0 0 1 75 26 733 733 0 0 1 75-26c-24-49-52-76-75-76zm122 263c-19-14-39-26-59-38s-42-23-63-33q-31 15-62 33c-21 12-42 24-60 38-3 22-3 45-3 70s0 48 3 70c19 14 39 26 60 38s41 23 62 33q31-15 63-33c20-12 41-24 59-38 0-22 3-45 3-70s0-48-3-70zm167-97c-12-20-51-31-103-27a623 623 0 0 1 14 78 625 625 0 0 1 61 52c31-43 40-82 28-103zm-28 231a625 625 0 0 1-61 52 616 616 0 0 1-14 78h20c42 0 72-10 84-29s2-58-29-101z" horiz-adv-x="1000"/><glyph glyph-name="auto-flash" unicode="" d="M745 492a42 42 0 0 1-37 25H518l52 197a42 42 0 0 1-7 36 42 42 0 0 1-33 17H238a42 42 0 0 1-41-31L85 319a42 42 0 0 1 42-52h160L212-14a42 42 0 0 1 71-39l454 500a42 42 0 0 1 8 45zM337 130l45 167a42 42 0 0 1-7 37 42 42 0 0 1-34 16H181l89 333h206l-53-197a42 42 0 0 1 42-53h148zm455 178h-42a125 125 0 0 1-125-125V-25a42 42 0 0 1 83 0v83h125v-83a42 42 0 0 1 84 0v208a125 125 0 0 1-125 125zm41-166H708v41a42 42 0 0 0 42 42h42a42 42 0 0 0 41-42z" horiz-adv-x="1000"/><glyph glyph-name="award-alt" unicode="" d="M500 808a292 292 0 0 1-208-495V-67a42 42 0 0 1 60-37l148 74 148-74a42 42 0 0 1 19-4 42 42 0 0 1 22 6 42 42 0 0 1 19 35v380a292 292 0 0 1-208 495zM625 1 519 54a42 42 0 0 1-38 0L375 1v252a292 292 0 0 1 83-25v-45a42 42 0 0 1 84 0v45a292 292 0 0 1 83 25zM500 308a208 208 0 1 0 208 209 208 208 0 0 0-208-209z" horiz-adv-x="1000"/><glyph glyph-name="award" unicode="" d="M870 131 757 326a288 288 0 0 1 35 139 292 292 0 0 1-584 0 288 288 0 0 1 35-139L130 131a42 42 0 0 1 37-62h119l61-103a42 42 0 0 1 8-9 42 42 0 0 1 28-12h6a42 42 0 0 1 31 21l80 138 80-139a42 42 0 0 1 31-20h6a42 42 0 0 1 29 11 36 36 0 0 1 7 9l61 103h119a42 42 0 0 1 37 20 42 42 0 0 1 0 43zM383 68l-37 62a42 42 0 0 1-36 20h-72l60 103a292 292 0 0 1 149-76zm117 188a208 208 0 1 0 208 209 208 208 0 0 0-208-209zm190-106a42 42 0 0 1-36-20l-37-62-63 110a294 294 0 0 1 148 77l60-104z" horiz-adv-x="1000"/><glyph glyph-name="baby-carriage" unicode="" d="M792 183A125 125 0 1 1 917 58a125 125 0 0 1-125 125zm0-166a42 42 0 1 0 41 41 42 42 0 0 0-41-41zM375 183A125 125 0 1 1 500 58a125 125 0 0 1-125 125zm0-166a42 42 0 1 0 42 41 42 42 0 0 0-42-41zm542 479a271 271 0 0 1-271 271h-21a42 42 0 0 1-42-42V517H313l-52 139a42 42 0 0 1-39 27h-97a42 42 0 0 1 0-83h68l52-140 22-57v-4a268 268 0 0 1 254-174h125a270 270 0 0 1 271 271zM778 363a186 186 0 0 0-132-55H521a186 186 0 0 0-174 117 6 6 0 0 0 0 3l-3 5h479a180 180 0 0 0-45-70zM667 517v166a187 187 0 0 0 166-166z" horiz-adv-x="1000"/><glyph glyph-name="backpack" unicode="" d="M542 433h-84a42 42 0 0 1 0-83h84a42 42 0 0 1 0 83zm208 0a167 167 0 0 1-125 161v48a125 125 0 0 1-250 0v-48a167 167 0 0 1-125-161A167 167 0 0 1 83 267V142A125 125 0 0 1 208 17h50a125 125 0 0 1 117-84h250a125 125 0 0 1 118 84h49a125 125 0 0 1 125 125v125a167 167 0 0 1-167 166zM250 100h-42a42 42 0 0 0-41 42v125a83 83 0 0 0 83 83zm208 542a42 42 0 0 0 84 0v-42h-84zM667 58a42 42 0 0 0-42-41H375a42 42 0 0 0-42 41v42a83 83 0 0 0 84 83h166a83 83 0 0 0 84-83zm0 185a163 163 0 0 1-84 24H417a163 163 0 0 1-84-24v190a83 83 0 0 0 84 84h166a83 83 0 0 0 84-84zm166-101a42 42 0 0 0-41-42h-42v250a83 83 0 0 0 83-83z" horiz-adv-x="1000"/><glyph glyph-name="backspace" unicode="" d="M792 642H410a125 125 0 0 1-89-37L95 380a42 42 0 0 1 0-60L321 95a125 125 0 0 1 89-37h382a125 125 0 0 1 125 125v334a125 125 0 0 1-125 125zm41-459a42 42 0 0 0-41-41H410a44 44 0 0 0-30 12L184 350l196 196a44 44 0 0 0 30 12h382a42 42 0 0 0 41-41zM696 463a42 42 0 0 1-59 0l-54-54-53 54a42 42 0 0 1-60-59l55-54-55-54a42 42 0 0 1 0-59 42 42 0 0 1 60 0l53 54 54-54a42 42 0 0 1 59 0 42 42 0 0 1 0 59l-54 54 54 54a42 42 0 0 1 0 59z" horiz-adv-x="1000"/><glyph glyph-name="backward" unicode="" d="M861 606a110 110 0 0 1-111 0l-167-96a111 111 0 0 1-166 97L139 446a111 111 0 0 1 0-192L417 93a111 111 0 0 1 111 0 110 110 0 0 1 55 97l167-97a112 112 0 0 1 55-15 109 109 0 0 1 56 16 110 110 0 0 1 56 96v320a110 110 0 0 1-56 96zM500 190a28 28 0 0 0-14-25 29 29 0 0 0-28 0L180 326a28 28 0 0 0 0 48l278 161a28 28 0 0 0 28 0 28 28 0 0 0 14-25zm333 0a28 28 0 0 0-41-24L583 286v128l209 120a28 28 0 0 0 41-24z" horiz-adv-x="1000"/><glyph glyph-name="bag-alt" unicode="" d="M792 579H667v42a125 125 0 0 1-125 125h-84a125 125 0 0 1-125-125v-42H208A125 125 0 0 1 83 454V79A125 125 0 0 1 208-46h584A125 125 0 0 1 917 79v375a125 125 0 0 1-125 125zm-375 42a42 42 0 0 0 41 42h84a42 42 0 0 0 41-42v-42H417zM833 79a42 42 0 0 0-41-41H208a42 42 0 0 0-41 41v229a905 905 0 0 1 333-63 906 906 0 0 1 333 63zm0 321a829 829 0 0 0-666 0v54a42 42 0 0 0 41 42h584a42 42 0 0 0 41-42z" horiz-adv-x="1000"/><glyph glyph-name="bag-slash" unicode="" d="M792 600H667v42a83 83 0 0 1-84 83H417a78 78 0 0 1-26-4 42 42 0 0 1-26-53 42 42 0 0 1 52-26h166v-42h-56a42 42 0 0 1 0-83h265a42 42 0 0 0 41-42v-53l-107-36a42 42 0 0 1-26-53 42 42 0 0 1 40-28 50 50 0 0 1 13 2l80 27V211a42 42 0 1 1 84 0v264a125 125 0 0 1-125 125zM155 755a42 42 0 0 1-60-60l98-95A125 125 0 0 1 83 475V100A125 125 0 0 1 208-25h584a128 128 0 0 1 22 2l31-32a42 42 0 0 1 60 0 42 42 0 0 1 0 60zm12-280a42 42 0 0 0 41 42h67l166-167h-59l-215 72zm41-417a42 42 0 0 0-41 42v234l195-67a50 50 0 0 1 13 0h150L733 58z" horiz-adv-x="1000"/><glyph glyph-name="bag" unicode="" d="M792 600H667v42a83 83 0 0 1-84 83H417a83 83 0 0 1-84-83v-42H208A125 125 0 0 1 83 475V100A125 125 0 0 1 208-25h584a125 125 0 0 1 125 125v375a125 125 0 0 1-125 125zm-375 42h166v-42H417zm416-542a42 42 0 0 0-41-42H208a42 42 0 0 0-41 42v234l195-67a50 50 0 0 1 13 0h250a50 50 0 0 1 13 2l195 65zm0 322-215-72H382l-215 72v53a42 42 0 0 0 41 42h584a42 42 0 0 0 41-42z" horiz-adv-x="1000"/><glyph glyph-name="balance-scale" unicode="" d="M957 274a39 39 0 0 1-1 7l-96 256a125 125 0 0 1 57 105 42 42 0 0 1-84 0 42 42 0 0 0-78-20 121 121 0 0 1-108 61H542v42a42 42 0 0 1-84 0v-42H353a121 121 0 0 1-108-61 42 42 0 0 0-78 20 42 42 0 0 1-84 0 125 125 0 0 1 57-105L44 281a39 39 0 0 1-1-7 40 40 0 0 1-1-7v-3a166 166 0 0 1 333 0v3a40 40 0 0 1-2 7 39 39 0 0 1-1 7l-96 256a125 125 0 0 1 42 46 38 38 0 0 0 35 17h105V17H333a42 42 0 0 1 0-84h334a42 42 0 0 1 0 84H542v583h106a38 38 0 0 0 34-17 125 125 0 0 1 42-46l-96-256a39 39 0 0 1-1-7 40 40 0 0 1-2-7v-3a166 166 0 0 1 333 0v3a40 40 0 0 1-1 7zM208 481l65-173H144zm72-256a84 84 0 0 0-72-42 83 83 0 0 0-72 42zm512 256 65-173H727zm0-298a83 83 0 0 0-72 42h143a84 84 0 0 0-71-42z" horiz-adv-x="1000"/><glyph glyph-name="ball" unicode="" d="m863 179-68 69a39 39 0 0 0-10 44 241 241 0 0 1 23 100 15 15 0 0 1 0 4 239 239 0 0 1-44 139 590 590 0 0 1-216 184 292 292 0 0 1-333-54l-28-28a292 292 0 0 1-54-336l4-7a125 125 0 0 1-35-86 125 125 0 0 1 190-105c7-6 14-13 21-18a231 231 0 0 1 51-27h4c7-3 15-5 24-8h6a212 212 0 0 1 39-6h26c9 0 17 0 26 3h7a227 227 0 0 1 59 18 42 42 0 0 0 45-8l61-61a142 142 0 0 1 99-42 119 119 0 0 1 84 36l16 15a125 125 0 0 1 3 174zm-638-13a42 42 0 1 0 42 41 42 42 0 0 0-42-41zm130-6-11 8a122 122 0 0 1 6 39 125 125 0 0 1-125 125h-15l-4 7a208 208 0 0 0 39 240l27 28a208 208 0 0 0 240 35 500 500 0 0 0 177-149zm449-99-16-16c-17-17-44-14-67 9l-61 60a125 125 0 0 1-139 26 141 141 0 0 0-41-13 118 118 0 0 0-25-2h-18l286 286a158 158 0 0 0-14-84 125 125 0 0 1 26-139l68-68a42 42 0 0 0 1-59z" horiz-adv-x="1000"/><glyph glyph-name="ban" unicode="" d="M500 767a417 417 0 1 1 417-417 417 417 0 0 1-417 417zm0-750a333 333 0 0 0-333 333 330 330 0 0 0 70 204L704 87a330 330 0 0 0-204-70zm263 129L296 613a330 330 0 0 0 204 70 333 333 0 0 0 333-333 330 330 0 0 0-70-204z" horiz-adv-x="1000"/><glyph glyph-name="bars" unicode="" d="M125 517h750a42 42 0 0 1 0 83H125a42 42 0 0 1 0-83zm750-334H125a42 42 0 0 1 0-83h750a42 42 0 0 1 0 83zm0 209H125a42 42 0 0 1 0-84h750a42 42 0 0 1 0 84z" horiz-adv-x="1000"/><glyph glyph-name="basketball-hoop" unicode="" d="M750 433H250a42 42 0 0 1 0-83h42V-25a42 42 0 0 1 83 0v42h83v-42a42 42 0 0 1 84 0v42h83v-42a42 42 0 0 1 83 0v375h42a42 42 0 0 1 0 83zM458 100h-83v83h83zm0 167h-83v83h83zm167-167h-83v83h83zm0 167h-83v83h83zm208 500H167A125 125 0 0 1 42 642V308a125 125 0 0 1 125-125 42 42 0 0 1 0 84 42 42 0 0 0-42 41v334a42 42 0 0 0 42 41h666a42 42 0 0 0 42-41V308a42 42 0 0 0-42-41 42 42 0 0 1 0-84 125 125 0 0 1 125 125v334a125 125 0 0 1-125 125zM583 517a42 42 0 0 1 0 83H417a42 42 0 0 1 0-83z" horiz-adv-x="1000"/><glyph glyph-name="basketball" unicode="" d="M500 767a417 417 0 0 1-350-192A417 417 0 0 1 761 25a417 417 0 0 1-261 742zm83-94a333 333 0 0 0 239-240 407 407 0 0 1-197-57 654 654 0 0 1-100 92 419 419 0 0 1 58 205zm-83 10a329 329 0 0 0-47-169c-7 3-13 7-19 10a647 647 0 0 1-170 61 333 333 0 0 0 236 98zM208 510a573 573 0 0 0 187-60l6-3a330 330 0 0 0-234-97 333 333 0 0 0 41 160zM417 28a333 333 0 0 0-240 239 413 413 0 0 1 296 133 583 583 0 0 0 83-75A417 417 0 0 1 417 28zm83-11a333 333 0 0 0 107 243c2-3 5-6 7-9a583 583 0 0 0 76-174 330 330 0 0 0-190-60zm259 125a667 667 0 0 1-75 156l-9 10a330 330 0 0 0 158 42 333 333 0 0 0-74-208z" horiz-adv-x="1000"/><glyph glyph-name="battery-bolt" unicode="" d="M279 225H167v250h96a42 42 0 0 1 0 83h-96a83 83 0 0 1-84-83V225a83 83 0 0 1 84-83h112a42 42 0 1 1 0 83zm300 107a53 53 0 0 1 2 7 59 59 0 0 1 0 8v8a27 27 0 0 1-2 8 37 37 0 0 1-3 7 36 36 0 0 1-4 7l-7 6-4 3h-2l-8 3H405l61 104a42 42 0 1 1-73 42l-96-167v-3a53 53 0 0 1-2-7 59 59 0 0 1 0-8h-3v-5a27 27 0 0 1 2-8 37 37 0 0 1 3-7 36 36 0 0 1 4-7l7-5a32 32 0 0 1 4-4h6a42 42 0 0 1 15-6h137l-61-104a42 42 0 0 1 73-41l96 166s0 2 1 3zm296 101a42 42 0 0 1-42-41v-84a42 42 0 0 1 84 0v84a42 42 0 0 1-42 41zM708 558H596a42 42 0 0 1 0-83h112V225h-96a42 42 0 1 1 0-83h96a83 83 0 0 1 84 83v250a83 83 0 0 1-84 83z" horiz-adv-x="1000"/><glyph glyph-name="battery-empty" unicode="" d="M708 558H167a83 83 0 0 1-84-83V225a83 83 0 0 1 84-83h541a83 83 0 0 1 84 83v250a83 83 0 0 1-84 83zm0-333H167v250h541zm167 208a42 42 0 0 1-42-41v-84a42 42 0 0 1 84 0v84a42 42 0 0 1-42 41z" horiz-adv-x="1000"/><glyph glyph-name="bed-double" unicode="" d="M833 704H167A125 125 0 0 1 42 579V38A42 42 0 0 1 83-4h167a42 42 0 0 1 35 19l71 106h288l71-106a42 42 0 0 1 35-19h167a42 42 0 0 1 41 42v541a125 125 0 0 1-125 125zm42-625H772l-71 104a42 42 0 0 1-34 21H333a42 42 0 0 1-34-19L227 79H125v209h750zM292 371v42a42 42 0 0 0 41 41h84a42 42 0 0 0 41-41v-42zm250 0v42a42 42 0 0 0 41 41h84a42 42 0 0 0 41-41v-42zm333 0h-83v42a125 125 0 0 1-125 125h-84a125 125 0 0 1-83-33 125 125 0 0 1-83 33h-84a125 125 0 0 1-125-125v-42h-83v208a42 42 0 0 0 42 42h666a42 42 0 0 0 42-42z" horiz-adv-x="1000"/><glyph glyph-name="bed" unicode="" d="M292 329a125 125 0 1 1-125 125 125 125 0 0 1 125-125zm0 167a42 42 0 1 0-42-42 42 42 0 0 0 42 42zm541 83H500a42 42 0 0 1-42-41V288H125v333a42 42 0 0 1-83 0V79a42 42 0 0 1 83 0v125h750V79a42 42 0 0 1 83 0v375a125 125 0 0 1-125 125zm42-291H542v208h291a42 42 0 0 0 42-42z" horiz-adv-x="1000"/><glyph glyph-name="behance" unicode="" d="M836 585H625v-58h212zm-44-404a93 93 0 0 0-54-15 93 93 0 0 0-71 22 104 104 0 0 0-26 74h276a270 270 0 0 1-7 83 212 212 0 0 1-34 72 174 174 0 0 1-59 51 182 182 0 0 1-83 18 203 203 0 0 1-79-15 188 188 0 0 1-62-42 183 183 0 0 1-39-63 225 225 0 0 1-14-80 230 230 0 0 1 13-81 186 186 0 0 1 37-63 167 167 0 0 1 61-42 217 217 0 0 1 81-14 199 199 0 0 1 110 29 175 175 0 0 1 68 98h-93a64 64 0 0 0-25-32zM649 353a78 78 0 0 0 41 47 95 95 0 0 0 42 9 72 72 0 0 0 57-21 121 121 0 0 0 26-60H642a125 125 0 0 0 5 25zm-221 20a128 128 0 0 1 54 42 113 113 0 0 1 18 65 137 137 0 0 1-12 62 100 100 0 0 1-35 42 135 135 0 0 1-53 21 314 314 0 0 1-68 7H83V88h254a273 273 0 0 1 69 9 190 190 0 0 1 60 27 130 130 0 0 1 41 47 142 142 0 0 1 16 69 145 145 0 0 1-24 83 125 125 0 0 1-73 50zM199 523h108a174 174 0 0 0 29-3 68 68 0 0 0 26-9 44 44 0 0 0 17-18 59 59 0 0 0 7-30 57 57 0 0 0-20-48 83 83 0 0 0-51-15H199zm201-310a53 53 0 0 0-18-21 83 83 0 0 0-27-11 139 139 0 0 0-33-4H197v144h125a100 100 0 0 0 61-17 69 69 0 0 0 22-58 74 74 0 0 0-5-34z" horiz-adv-x="1000"/><glyph glyph-name="bell-school" unicode="" d="M875 517a83 83 0 1 1-95-84 187 187 0 0 0-125-243 125 125 0 0 1-54 59 292 292 0 1 1-454 0 125 125 0 0 1-64-107v-42A125 125 0 0 1 208-25h334a125 125 0 0 1 125 125v8a270 270 0 0 1 191 358 83 83 0 0 1 17 51zM583 100a42 42 0 0 0-41-42H208a42 42 0 0 0-41 42v42a42 42 0 0 0 41 41h17a289 289 0 0 1 300 0h17a42 42 0 0 0 41-41zM375 225a208 208 0 1 0 208 208 208 208 0 0 0-208-208zm0 250a42 42 0 1 1 42-42 42 42 0 0 1-42 42z" horiz-adv-x="1000"/><glyph glyph-name="bell-slash" unicode="" d="M461 595a145 145 0 0 0 39 5 167 167 0 0 0 167-167v-55a42 42 0 0 1 83 0v55a250 250 0 0 1-208 247v45a42 42 0 0 1-84 0v-46l-18-3a42 42 0 0 1 21-81zM905 5 155 755a42 42 0 0 1-60-60l172-171a250 250 0 0 1-17-91V301a125 125 0 0 1-83-118v-83a42 42 0 0 1 41-42h131a167 167 0 0 1 322 0h72L845-55a42 42 0 0 1 60 0 42 42 0 0 1 0 60zM333 433a138 138 0 0 0 0 23l150-148H333zM500 17a83 83 0 0 0-72 41h144a83 83 0 0 0-72-41zM250 142v41a42 42 0 0 0 42 42h274l84-83z" horiz-adv-x="1000"/><glyph glyph-name="bell" unicode="" d="M750 301v132a250 250 0 0 1-208 247v45a42 42 0 0 1-84 0v-45a250 250 0 0 1-208-247V301a125 125 0 0 1-83-118v-83a42 42 0 0 1 41-42h131a167 167 0 0 1 322 0h131a42 42 0 0 1 41 42v83a125 125 0 0 1-83 118zM333 433a167 167 0 0 0 334 0V308H333zM500 17a83 83 0 0 0-72 41h144a83 83 0 0 0-72-41zm250 125H250v41a42 42 0 0 0 42 42h416a42 42 0 0 0 42-42z" horiz-adv-x="1000"/><glyph glyph-name="bill" unicode="" d="M396 413h104a42 42 0 0 1 0 83h-42v21a42 42 0 0 1-83 0v-23a104 104 0 0 1 21-206h42a21 21 0 0 0 0-42H333a42 42 0 0 1 0-83h42v-21a42 42 0 0 1 83 0v23a104 104 0 0 1-20 206h-42a21 21 0 0 0 0 41zm479-63H750v375a42 42 0 0 1-21 36 42 42 0 0 1-41 0l-125-71-125 71a42 42 0 0 1-42 0l-125-71-125 71a42 42 0 0 1-42 0 42 42 0 0 1-21-36V58A125 125 0 0 1 208-67h584A125 125 0 0 1 917 58v250a42 42 0 0 1-42 42zM208 17a42 42 0 0 0-41 41v595l83-48a45 45 0 0 1 42 0l125 72 125-72a45 45 0 0 1 41 0l84 48V58a125 125 0 0 1 7-41zm625 41a42 42 0 0 0-83 0v209h83z" horiz-adv-x="1000"/><glyph glyph-name="bitcoin-circle" unicode="" d="M500 808a458 458 0 1 1 458-458 458 458 0 0 1-458 458zm0-833a375 375 0 1 0 375 375A375 375 0 0 0 500-25zm83 583v42a42 42 0 0 1-83 0v-42h-42v42a42 42 0 0 1-83 0v-42h-42a42 42 0 0 1 0-83h42V225h-42a42 42 0 0 1 0-83h42v-42a42 42 0 0 1 83 0v42h42v-42a42 42 0 0 1 83 0v42a125 125 0 0 1 125 125 125 125 0 0 1-32 83 125 125 0 0 1 32 83 125 125 0 0 1-125 125zm0-333H458v83h125a42 42 0 0 0 0-83zm0 167H458v83h125a42 42 0 0 0 0-83z" horiz-adv-x="1000"/><glyph glyph-name="bitcoin" unicode="" d="M792 475a167 167 0 0 1-167 167v83a42 42 0 0 1-83 0v-83h-84v83a42 42 0 0 1-83 0v-83H250a42 42 0 0 1 0-84h42V142h-42a42 42 0 0 1 0-84h125v-83a42 42 0 0 1 83 0v83h84v-83a42 42 0 0 1 83 0v83a167 167 0 0 1 109 292 167 167 0 0 1 58 125zM625 142H375v166h250a83 83 0 0 0 0-166zm0 250H375v166h250a83 83 0 0 0 0-166z" horiz-adv-x="1000"/><glyph glyph-name="black-berry" unicode="" d="M500 767a417 417 0 1 1 417-417 417 417 0 0 1-417 417zM300 294h-80l21 100h77c50 0 62-24 62-44 0-27-18-56-80-56zm27 151h-79l21 101h77c49 0 61-25 61-42 0-29-17-59-80-59zm156-309h-80l22 101h77c50 0 61-25 61-44 0-28-17-57-80-57zm30 158h-80l22 100h77c49 0 61-24 61-44 0-27-18-56-80-56zm29 151h-81l22 101h76c50 0 62-25 62-42 0-29-18-59-79-59zm156-233h-81l22 101h76c50 0 62-25 62-45 0-27-18-56-80-56zm30 143h-81l20 101h76c50 0 62-25 62-42 2-29-16-59-78-59z" horiz-adv-x="1000"/><glyph glyph-name="bluetooth-b" unicode="" d="m559 350 158 158a42 42 0 0 1 0 59L530 755a42 42 0 0 1-14 8 42 42 0 0 1-32 0 42 42 0 0 1-22-22 42 42 0 0 1-4-16V450L342 567a42 42 0 1 1-59-59l158-158-158-158a42 42 0 1 1 59-59l116 117V-25a42 42 0 0 1 4-16 42 42 0 0 1 22-22 39 39 0 0 1 32 0 42 42 0 0 1 14 8l187 188a42 42 0 0 1 0 59zm-17 275 87-87-87-88zm0-550v175l87-87z" horiz-adv-x="1000"/><glyph glyph-name="bold" unicode="" d="M688 454a146 146 0 0 1-146 146H354a42 42 0 0 1-42-42V142a42 42 0 0 1 42-42h188a145 145 0 0 1 101 250 146 146 0 0 1 44 104zM542 183H396v125h146a63 63 0 0 0 0-125zm0 209H396v125h146a63 63 0 0 0 0-125z" horiz-adv-x="1000"/><glyph glyph-name="bolt-alt" unicode="" d="M829 452a42 42 0 0 1-37 23H583v250a42 42 0 0 1-28 42 42 42 0 0 1-47-15L175 293a42 42 0 0 1-4-41 42 42 0 0 1 37-27h209V-25a42 42 0 0 1 28-40 47 47 0 0 1 13-2 42 42 0 0 1 34 17l333 459a42 42 0 0 1 4 43zM500 103v164a42 42 0 0 1-42 41H292l208 289V433a42 42 0 0 1 42-41h166z" horiz-adv-x="1000"/><glyph glyph-name="bolt-slash" unicode="" d="M361 674a42 42 0 0 1 39 9h212l-52-197a42 42 0 0 1 7-36 42 42 0 0 1 33-17h150l-47-51a42 42 0 0 1 3-59 42 42 0 0 1 28-11 42 42 0 0 1 31 14l110 121a42 42 0 0 1-32 70H654l54 197a42 42 0 0 1-7 36 42 42 0 0 1-34 17H375a42 42 0 0 1-42-31v-11a42 42 0 0 1 28-51zM903 5 153 755a42 42 0 0 1-58-60l180-178-52-198a42 42 0 0 1 7-36 42 42 0 0 1 33-16h160L348-14a42 42 0 0 1 20-48 42 42 0 0 1 20-5 42 42 0 0 1 31 14l202 223L845-55a42 42 0 0 1 60 0 42 42 0 0 1 0 60zM318 350l26 98 97-98zm155-220 42 148 50-49z" horiz-adv-x="1000"/><glyph glyph-name="bolt" unicode="" d="M828 492a42 42 0 0 1-36 25H601l53 197a42 42 0 0 1-7 36 42 42 0 0 1-33 17H322a42 42 0 0 1-42-31L169 319a42 42 0 0 1 7-36 42 42 0 0 1 33-16h161L295-14a42 42 0 0 1 71-39l454 500a42 42 0 0 1 8 45zM420 130l45 167a42 42 0 0 1-7 36 42 42 0 0 1-33 16H265l89 334h205l-53-197a42 42 0 0 1 42-53h149z" horiz-adv-x="1000"/><glyph glyph-name="book-alt" unicode="" d="M750 767H333a167 167 0 0 1-166-167V100A167 167 0 0 1 333-67h417a83 83 0 0 1 83 84v666a83 83 0 0 1-83 84zM250 600a83 83 0 0 0 83 83h417V267H333a163 163 0 0 1-83-24zm83-583a83 83 0 0 0 0 166h417V17zm84 500h166a42 42 0 0 1 0 83H417a42 42 0 0 1 0-83z" horiz-adv-x="1000"/><glyph glyph-name="book-medical" unicode="" d="M542 475h-84v83a42 42 0 0 1-83 0v-83h-83a42 42 0 0 1 0-83h83v-84a42 42 0 0 1 83 0v84h84a42 42 0 0 1 0 83zm208-250v417a125 125 0 0 1-125 125H208A125 125 0 0 1 83 642V225a125 125 0 0 1 125-125h417a125 125 0 0 1 125 125zm-583 0v417a42 42 0 0 0 41 41h417a42 42 0 0 0 42-41V225a42 42 0 0 0-42-42H208a42 42 0 0 0-41 42zm708 375a42 42 0 0 1-42-42V142A125 125 0 0 0 708 17H292a42 42 0 0 1 0-84h416a208 208 0 0 1 209 209v416a42 42 0 0 1-42 42z" horiz-adv-x="1000"/><glyph glyph-name="book-open" unicode="" d="M882 764a546 546 0 0 1-90 8 539 539 0 0 1-292-85 539 539 0 0 1-292 83 546 546 0 0 1-90-8 42 42 0 0 1-35-42V220a42 42 0 0 1 49-41 454 454 0 0 0 344-80l5-3h4a38 38 0 0 1 30 0h4l5 3a454 454 0 0 0 344 84 42 42 0 0 1 49 42v500a42 42 0 0 1-35 39zM458 210a536 536 0 0 1-250 62h-41v417a362 362 0 0 0 41 0 452 452 0 0 0 250-75zm375 60h-41a536 536 0 0 1-250-61v405a452 452 0 0 0 250 75 362 362 0 0 0 41 0zm49-172a546 546 0 0 1-90 7 539 539 0 0 1-292-85 539 539 0 0 1-292 85 546 546 0 0 1-90-7 42 42 0 0 1-35-48 42 42 0 0 1 49-33 454 454 0 0 0 344-80 42 42 0 0 1 48 0 454 454 0 0 0 344 80 42 42 0 0 1 49 33 42 42 0 0 1-35 48z" horiz-adv-x="1000"/><glyph glyph-name="book-reader" unicode="" d="M841 425a496 496 0 0 1-91 8c-17 0-35 0-52-3a246 246 0 0 1-79 69 159 159 0 0 1 41 107 161 161 0 0 1-321 0 159 159 0 0 1 41-107 255 255 0 0 1-79-69c-16 3-33 3-51 3a496 496 0 0 1-91-8 42 42 0 0 1-34-42V39a42 42 0 0 1 15-32 42 42 0 0 1 34-9 406 406 0 0 0 76 9 412 412 0 0 0 227-68l6-2a45 45 0 0 1 17-4 36 36 0 0 1 12 2h3l5 3A412 412 0 0 0 750 7a406 406 0 0 0 76-7 42 42 0 0 1 34 9 42 42 0 0 1 15 32v344a42 42 0 0 1-34 40zM500 683a78 78 0 0 0 0-154 78 78 0 0 0 0 154zM458 45a497 497 0 0 1-208 45c-14 0-27 0-42-2v262a401 401 0 0 0 105-2h5a417 417 0 0 0 140-53zm42 322a490 490 0 0 1-57 28h-3c-14 5-27 11-42 15a167 167 0 0 0 102 36 167 167 0 0 0 102-35 518 518 0 0 1-102-44zM792 88a483 483 0 0 1-250-41v250a407 407 0 0 0 140 51h8a391 391 0 0 0 102 2z" horiz-adv-x="1000"/><glyph glyph-name="book" unicode="" d="M625 600H375a42 42 0 0 1-42-42V392a42 42 0 0 1 42-42h250a42 42 0 0 1 42 42v166a42 42 0 0 1-42 42zm-42-167H417v84h166zm125 334H208a42 42 0 0 1-41-42V-25a42 42 0 0 1 41-42h500A125 125 0 0 1 833 58v584a125 125 0 0 1-125 125zm42-709a42 42 0 0 0-42-41H250v666h458a42 42 0 0 0 42-41z" horiz-adv-x="1000"/><glyph glyph-name="bookmark-full" unicode="" d="M750 767H250a42 42 0 0 1-42-42V-25a42 42 0 0 1 69-32l223 187L720-55a42 42 0 0 1 30-12 35 35 0 0 1 16 4 42 42 0 0 1 26 38v750a42 42 0 0 1-42 42zM708 64 527 217a42 42 0 0 1-54 0L292 64v619h416z" horiz-adv-x="1000"/><glyph glyph-name="bookmark" unicode="" d="M667 767H333a125 125 0 0 1-125-125V-25a42 42 0 0 1 21-36 42 42 0 0 1 42 0L500 71 729-61a42 42 0 0 1 21-6 42 42 0 0 1 21 6 42 42 0 0 1 21 36v667a125 125 0 0 1-125 125zm41-720L521 155a42 42 0 0 1-42 0L292 47v595a42 42 0 0 0 41 41h334a42 42 0 0 0 41-41z" horiz-adv-x="1000"/><glyph glyph-name="books" unicode="" d="m936 66-41 161-132 483a42 42 0 0 1-51 29l-161-41a42 42 0 0 1-30 13H104a42 42 0 0 1-42-41V3a42 42 0 0 1 42-42h417a42 42 0 0 1 41 42v333L654-6a42 42 0 0 1 42-31 48 48 0 0 1 11 0l201 54a42 42 0 0 1 25 19 44 44 0 0 1 3 30zM270 43H145v83h125zm0 167H145v250h125zm0 333H145v83h125zM478 43H353v83h125zm0 167H353v250h125zm0 333H353v83h125zm94 72 120 33 22-80-121-33zm108-402-65 242 121 32 64-242zm41-161-21 81 120 32 22-80z" horiz-adv-x="1000"/><glyph glyph-name="boombox" unicode="" d="M708 767H292a125 125 0 0 1-125-125V58A125 125 0 0 1 292-67h416A125 125 0 0 1 833 58v584a125 125 0 0 1-125 125zm42-709a42 42 0 0 0-42-41H292a42 42 0 0 0-42 41v584a42 42 0 0 0 42 41h416a42 42 0 0 0 42-41zM599 400a125 125 0 0 1 26 75 125 125 0 0 1-250 0 125 125 0 0 1 26-75 167 167 0 1 1 198 0zm-99 117a42 42 0 1 0-42-42 42 42 0 0 0 42 42zm0-334a83 83 0 1 0 83 84 83 83 0 0 0-83-84z" horiz-adv-x="1000"/><glyph glyph-name="border-alt" unicode="" d="M479 79a42 42 0 1 1 42-41 42 42 0 0 1-42 41zm375 625a42 42 0 0 1-41 42H146a42 42 0 0 1-42-42V38a42 42 0 0 1 84 0v625h625a42 42 0 0 1 41 41zM646 79a42 42 0 1 1 41-41 42 42 0 0 1-41 41zm-334 0a42 42 0 1 1 42-41 42 42 0 0 1-42 41zm501 500a42 42 0 1 1 41-41 42 42 0 0 1-41 41zm0-166a42 42 0 1 1 41-42 42 42 0 0 1-41 42zm0-167a42 42 0 1 1 41-42 42 42 0 0 1-41 42zm0-167a42 42 0 1 1 41-41 42 42 0 0 1-41 41z" horiz-adv-x="1000"/><glyph glyph-name="border-bottom" unicode="" d="M500 288a42 42 0 1 1-42 41 42 42 0 0 1 42-41zm0-167a42 42 0 1 1-42 42 42 42 0 0 1 42-42zm0 333a42 42 0 1 1-42 42 42 42 0 0 1 42-42zM333 621a42 42 0 1 1-41 42 42 42 0 0 1 41-42zm0-333a42 42 0 1 1-41 41 42 42 0 0 1 41-41zm500 333a42 42 0 1 1-41 42 42 42 0 0 1 41-42zM667 288a42 42 0 1 1-42 41 42 42 0 0 1 42-41zM500 621a42 42 0 1 1-42 42 42 42 0 0 1 42-42zm167 0a42 42 0 1 1-42 42 42 42 0 0 1 42-42zm166-417a42 42 0 1 1 42-41 42 42 0 0 1-42 41zm0 167a42 42 0 1 1 42-42 42 42 0 0 1-42 42zm0-333H167a42 42 0 0 1 0-84h666a42 42 0 0 1 0 84zm0 500a42 42 0 1 1 42-42 42 42 0 0 1-42 42zM167 288a42 42 0 1 1-42 41 42 42 0 0 1 42-41zm0 166a42 42 0 1 1-42 42 42 42 0 0 1 42-42zm0-333a42 42 0 1 1-42 41 42 42 0 0 1 42-41zm0 500a42 42 0 1 1-42 41 42 42 0 0 1 42-41z" horiz-adv-x="1000"/><glyph glyph-name="border-clear" unicode="" d="M333 392a42 42 0 1 1 42-42 42 42 0 0 1-42 42zm0-334a42 42 0 1 1 42-41 42 42 0 0 1-42 41zm167 0a42 42 0 1 1 42-41 42 42 0 0 1-42 41zM167 725a42 42 0 1 1 41-42 42 42 0 0 1-41 42zm0-333a42 42 0 1 1 41-42 42 42 0 0 1-41 42zm666 250a42 42 0 1 1-41 41 42 42 0 0 1 41-41zM167 58a42 42 0 1 1 41-41 42 42 0 0 1-41 41zm333 167a42 42 0 1 1 42-42 42 42 0 0 1-42 42zm-333 0a42 42 0 1 1 41-42 42 42 0 0 1-41 42zm0 333a42 42 0 1 1 41-41 42 42 0 0 1-41 41zm166 167a42 42 0 1 1 42-42 42 42 0 0 1-42 42zm500-500a42 42 0 1 1 42-42 42 42 0 0 1-42 42zm0-167a42 42 0 1 1 42-41 42 42 0 0 1-42 41zm0 500a42 42 0 1 1 42-41 42 42 0 0 1-42 41zM500 392a42 42 0 1 1 42-42 42 42 0 0 1-42 42zm333 0a42 42 0 1 1 42-42 42 42 0 0 1-42 42zM667 725a42 42 0 1 1 41-42 42 42 0 0 1-41 42zm-167 0a42 42 0 1 1 42-42 42 42 0 0 1-42 42zm0-167a42 42 0 1 1 42-41 42 42 0 0 1-42 41zM667 58a42 42 0 1 1 41-41 42 42 0 0 1-41 41zm0 334a42 42 0 1 1 41-42 42 42 0 0 1-41 42z" horiz-adv-x="1000"/><glyph glyph-name="border-horizontal" unicode="" d="M333 642a42 42 0 1 1-41 41 42 42 0 0 1 41-41zM167 475a42 42 0 1 1-42 42 42 42 0 0 1 42-42zm333 0a42 42 0 1 1-42 42 42 42 0 0 1 42-42zM167 642a42 42 0 1 1-42 41 42 42 0 0 1 42-41zm500 0a42 42 0 1 1-42 41 42 42 0 0 1 42-41zm-167 0a42 42 0 1 1-42 41 42 42 0 0 1 42-41zm333 0a42 42 0 1 1-41 41 42 42 0 0 1 41-41zM167 58a42 42 0 1 1 41-41 42 42 0 0 1-41 41zm666 0a42 42 0 1 1 42-41 42 42 0 0 1-42 41zm0 167a42 42 0 1 1 42-42 42 42 0 0 1-42 42zm0 167H167a42 42 0 0 1 0-84h666a42 42 0 0 1 0 84zM667 58a42 42 0 1 1 41-41 42 42 0 0 1-41 41zM167 225a42 42 0 1 1 41-42 42 42 0 0 1-41 42zm666 333a42 42 0 1 1 42-41 42 42 0 0 1-42 41zM333 58a42 42 0 1 1 42-41 42 42 0 0 1-42 41zm167 0a42 42 0 1 1 42-41 42 42 0 0 1-42 41zm0 167a42 42 0 1 1 42-42 42 42 0 0 1-42 42z" horiz-adv-x="1000"/><glyph glyph-name="border-inner" unicode="" d="M333 642a42 42 0 1 1-41 41 42 42 0 0 1 41-41zM167 475a42 42 0 1 1-42 42 42 42 0 0 1 42-42zm0 167a42 42 0 1 1-42 41 42 42 0 0 1 42-41zm0-584a42 42 0 1 1 41-41 42 42 0 0 1-41 41zm666 584a42 42 0 1 1-41 41 42 42 0 0 1 41-41zm0-167a42 42 0 1 1-41 42 42 42 0 0 1 41-42zM667 642a42 42 0 1 1-42 41 42 42 0 0 1 42-41zM833 58a42 42 0 1 1 42-41 42 42 0 0 1-42 41zM167 225a42 42 0 1 1 41-42 42 42 0 0 1-41 42zm666 0a42 42 0 1 1 42-42 42 42 0 0 1-42 42zM667 58a42 42 0 1 1 41-41 42 42 0 0 1-41 41zm208 292a42 42 0 0 1-42 42H542v291a42 42 0 0 1-84 0V392H167a42 42 0 0 1 0-84h291V17a42 42 0 0 1 84 0v291h291a42 42 0 0 1 42 42zM333 58a42 42 0 1 1 42-41 42 42 0 0 1-42 41z" horiz-adv-x="1000"/><glyph glyph-name="border-left" unicode="" d="M479 58a42 42 0 1 1 42-41 42 42 0 0 1-42 41zm0 167a42 42 0 1 1 42-42 42 42 0 0 1-42 42zm0 167a42 42 0 1 1 42-42 42 42 0 0 1-42 42zM146 725a42 42 0 0 1-42-42V17a42 42 0 0 1 84 0v666a42 42 0 0 1-42 42zm667-83a42 42 0 1 1-42 41 42 42 0 0 1 42-41zm-334-84a42 42 0 1 1 42-41 42 42 0 0 1-42 41zM313 392a42 42 0 1 1 41-42 42 42 0 0 1-41 42zm0-334a42 42 0 1 1 41-41 42 42 0 0 1-41 41zm0 667a42 42 0 1 1 41-42 42 42 0 0 1-41 42zm500-333a42 42 0 1 1 41-42 42 42 0 0 1-41 42zm0-167a42 42 0 1 1 41-42 42 42 0 0 1-41 42zM479 725a42 42 0 1 1 42-42 42 42 0 0 1-42 42zM813 58a42 42 0 1 1 41-41 42 42 0 0 1-41 41zm0 500a42 42 0 1 1 41-41 42 42 0 0 1-41 41zM646 725a42 42 0 1 1 42-42 42 42 0 0 1-42 42zm0-667a42 42 0 1 1 42-41 42 42 0 0 1-42 41zm0 334a42 42 0 1 1 42-42 42 42 0 0 1-42 42z" horiz-adv-x="1000"/><glyph glyph-name="border-out" unicode="" d="M500 475a42 42 0 1 1-42 42 42 42 0 0 1 42-42zm0-167a42 42 0 1 1-42 42 42 42 0 0 1 42-42zm167 0a42 42 0 1 1-42 42 42 42 0 0 1 42-42zM500 142a42 42 0 1 1-42 41 42 42 0 0 1 42-41zm333 583H167a42 42 0 0 1-42-42V17a42 42 0 0 1 42-42h666a42 42 0 0 1 42 42v666a42 42 0 0 1-42 42zM792 58H208v584h584zM333 308a42 42 0 1 1-41 42 42 42 0 0 1 41-42z" horiz-adv-x="1000"/><glyph glyph-name="border-right" unicode="" d="M188 558a42 42 0 1 1 41-41 42 42 0 0 1-41 41zm0 167a42 42 0 1 1 41-42 42 42 0 0 1-41 42zM354 58a42 42 0 1 1 42-41 42 42 0 0 1-42 41zm-167 0a42 42 0 1 1 42-41 42 42 0 0 1-42 41zm167 334a42 42 0 1 1 42-42 42 42 0 0 1-42 42zm0 333a42 42 0 1 1 42-42 42 42 0 0 1-42 42zM187 392a42 42 0 1 1 42-42 42 42 0 0 1-42 42zm0-167a42 42 0 1 1 42-42 42 42 0 0 1-42 42zm501 500a42 42 0 1 1 41-42 42 42 0 0 1-41 42zm0-333a42 42 0 1 1 41-42 42 42 0 0 1-41 42zM521 58a42 42 0 1 1 42-41 42 42 0 0 1-42 41zm0 667a42 42 0 1 1 42-42 42 42 0 0 1-42 42zm333 0a42 42 0 0 1-41-42V17a42 42 0 0 1 83 0v666a42 42 0 0 1-42 42zM688 58a42 42 0 1 1 41-41 42 42 0 0 1-41 41zM521 558a42 42 0 1 1 42-41 42 42 0 0 1-42 41zm0-333a42 42 0 1 1 42-42 42 42 0 0 1-42 42zm0 167a42 42 0 1 1 42-42 42 42 0 0 1-42 42z" horiz-adv-x="1000"/><glyph glyph-name="border-top" unicode="" d="M333 79a42 42 0 1 1 42-41 42 42 0 0 1-42 41zm0 334a42 42 0 1 1 42-42 42 42 0 0 1-42 42zM500 79a42 42 0 1 1 42-41 42 42 0 0 1-42 41zM167 579a42 42 0 1 1 41-41 42 42 0 0 1-41 41zm0-500a42 42 0 1 1 41-41 42 42 0 0 1-41 41zm0 584h666a42 42 0 0 1 0 83H167a42 42 0 0 1 0-83zm0-417a42 42 0 1 1 41-42 42 42 0 0 1-41 42zm0 167a42 42 0 1 1 41-42 42 42 0 0 1-41 42zm333 166a42 42 0 1 1 42-41 42 42 0 0 1-42 41zm333-333a42 42 0 1 1 42-42 42 42 0 0 1-42 42zm0-167a42 42 0 1 1 42-41 42 42 0 0 1-42 41zM500 246a42 42 0 1 1 42-42 42 42 0 0 1-42 42zm333 333a42 42 0 1 1 42-42 42 42 0 0 1-42 42zm0-167a42 42 0 1 1 42-41 42 42 0 0 1-42 41zm-333 0a42 42 0 1 1 42-41 42 42 0 0 1-42 41zm167 0a42 42 0 1 1 41-41 42 42 0 0 1-41 41zm0-333a42 42 0 1 1 41-42 42 42 0 0 1-41 42z" horiz-adv-x="1000"/><glyph glyph-name="border-vertical" unicode="" d="M125 725a42 42 0 1 1 42-42 42 42 0 0 1-42 42zm0-167a42 42 0 1 1 42-41 42 42 0 0 1-42 41zm667 84a42 42 0 1 1-42 41 42 42 0 0 1 42-41zM292 392a42 42 0 1 1 41-42 42 42 0 0 1-41 42zm0-334a42 42 0 1 1 41-41 42 42 0 0 1-41 41zm0 667a42 42 0 1 1 41-42 42 42 0 0 1-41 42zM125 225a42 42 0 1 1 42-42 42 42 0 0 1-42 42zm0 167a42 42 0 1 1 42-42 42 42 0 0 1-42 42zm0-334a42 42 0 1 1 42-41 42 42 0 0 1-42 41zm667 167a42 42 0 1 1 41-42 42 42 0 0 1-41 42zm0 167a42 42 0 1 1 41-42 42 42 0 0 1-41 42zm0-334a42 42 0 1 1 41-41 42 42 0 0 1-41 41zm0 500a42 42 0 1 1 41-41 42 42 0 0 1-41 41zM625 725a42 42 0 1 1 42-42 42 42 0 0 1-42 42zm-167 0a42 42 0 0 1-41-42V17a42 42 0 0 1 83 0v666a42 42 0 0 1-42 42zM625 58a42 42 0 1 1 42-41 42 42 0 0 1-42 41zm0 334a42 42 0 1 1 42-42 42 42 0 0 1-42 42z" horiz-adv-x="1000"/><glyph glyph-name="box" unicode="" d="M854 537a8 8 0 0 0 0 3 7 7 0 0 0 0 3v4l-3 6a20 20 0 0 1-4 5l-3 3h-2L677 665l-155 95a35 35 0 0 1-12 7h-3a34 34 0 0 1-11 0h-4a47 47 0 0 1-14-6L167 568l-4-3-4-4-4-3-2-2-3-6v-7a29 29 0 0 1 0-8V171a42 42 0 0 1 20-35L483-58l6-2h3a36 36 0 0 1 22 0h3l6 2 310 191a42 42 0 0 1 20 35v364s1 3 1 5zM500 676l74-46-233-144-74 46zM458 51 229 191v267l229-142zm42 338-80 48 233 145 80-50zm271-196L542 50v266l229 142z" horiz-adv-x="1000"/><glyph glyph-name="briefcase-alt" unicode="" d="M792 579H667v42a125 125 0 0 1-125 125h-84a125 125 0 0 1-125-125v-42H208A125 125 0 0 1 83 454V79A125 125 0 0 1 208-46h584A125 125 0 0 1 917 79v375a125 125 0 0 1-125 125zm-375 42a42 42 0 0 0 41 42h84a42 42 0 0 0 41-42v-42H417zM833 79a42 42 0 0 0-41-41H208a42 42 0 0 0-41 41v229a886 886 0 0 1 125-39v-24a42 42 0 0 1 83 0v8a958 958 0 0 1 125-8 958 958 0 0 1 125 8v-8a42 42 0 0 1 83 0v24a886 886 0 0 1 125 39zm0 321a850 850 0 0 0-125-42v13a42 42 0 0 1-83 0v-31a838 838 0 0 0-250 0v31a42 42 0 0 1-83 0v-14a850 850 0 0 0-125 42v55a42 42 0 0 0 41 42h584a42 42 0 0 0 41-42z" horiz-adv-x="1000"/><glyph glyph-name="briefcase" unicode="" d="M875 600H708v42a125 125 0 0 1-125 125H417a125 125 0 0 1-125-125v-42H125a42 42 0 0 1-42-42V392a125 125 0 0 1 42-93V58A125 125 0 0 1 250-67h500A125 125 0 0 1 875 58v241a125 125 0 0 1 42 93v166a42 42 0 0 1-42 42zm-500 42a42 42 0 0 0 42 41h166a42 42 0 0 0 42-41v-42H375zM792 58a42 42 0 0 0-42-41H250a42 42 0 0 0-42 41v209h84v-42a42 42 0 0 1 83 0v42h250v-42a42 42 0 0 1 83 0v42h84zm41 334a42 42 0 0 0-41-42h-84v42a42 42 0 0 1-83 0v-42H375v42a42 42 0 0 1-83 0v-42h-84a42 42 0 0 0-41 42v125h666z" horiz-adv-x="1000"/><glyph glyph-name="bright" unicode="" d="M500 517a167 167 0 1 1 167-167 167 167 0 0 1-167 167zm0-250a83 83 0 1 0 83 83 83 83 0 0 0-83-83zm405 113-98 95v140a42 42 0 0 1-42 42H627l-97 98a42 42 0 0 1-60 0l-95-98H235a42 42 0 0 1-42-42V475l-98-95a42 42 0 0 1 0-60l98-97V85a42 42 0 0 1 42-42h140l98-98a42 42 0 0 1 59 0l97 98h138a42 42 0 0 1 42 42v138l98 97a42 42 0 0 1-2 60zM736 270a42 42 0 0 1-13-30V127H610a42 42 0 0 1-30-13l-80-80-80 80a42 42 0 0 1-30 13H277v113a42 42 0 0 1-13 30l-80 80 80 80a42 42 0 0 1 13 30v113h113a42 42 0 0 1 30 13l80 80 80-80a42 42 0 0 1 30-13h113V460a42 42 0 0 1 13-30l80-80z" horiz-adv-x="1000"/><glyph glyph-name="brightness-empty" unicode="" d="m905 380-98 95v140a42 42 0 0 1-42 42H627l-97 98a42 42 0 0 1-60 0l-95-98H235a42 42 0 0 1-42-42V475l-98-95a42 42 0 0 1 0-60l98-97V85a42 42 0 0 1 42-42h140l98-98a42 42 0 0 1 59 0l97 98h138a42 42 0 0 1 42 42v138l98 97a42 42 0 0 1-2 60zM736 270a42 42 0 0 1-13-30V127H610a42 42 0 0 1-30-13l-80-80-80 80a42 42 0 0 1-30 13H277v113a42 42 0 0 1-13 30l-80 80 80 80a42 42 0 0 1 13 30v113h113a42 42 0 0 1 30 13l80 80 80-80a42 42 0 0 1 30-13h113V460a42 42 0 0 1 13-30l80-80z" horiz-adv-x="1000"/><glyph glyph-name="brightness-half" unicode="" d="M500 517a42 42 0 0 1 0-84 83 83 0 0 0 0-166 42 42 0 0 1 0-84 167 167 0 0 1 0 334zm405-137-98 95v140a42 42 0 0 1-42 42H627l-97 98a42 42 0 0 1-60 0l-95-98H235a42 42 0 0 1-42-42V475l-98-95a42 42 0 0 1 0-60l98-97V85a42 42 0 0 1 42-42h140l98-98a42 42 0 0 1 59 0l97 98h138a42 42 0 0 1 42 42v138l98 97a42 42 0 0 1-2 60zM736 270a42 42 0 0 1-13-30V127H610a42 42 0 0 1-30-13l-80-80-80 80a42 42 0 0 1-30 13H277v113a42 42 0 0 1-13 30l-80 80 80 80a42 42 0 0 1 13 30v113h113a42 42 0 0 1 30 13l80 80 80-80a42 42 0 0 1 30-13h113V460a42 42 0 0 1 13-30l80-80z" horiz-adv-x="1000"/><glyph glyph-name="brightness-low" unicode="" d="M125 392a42 42 0 1 1 42-42 42 42 0 0 1-42 42zm80-278a42 42 0 1 1 59 0 42 42 0 0 1-59 0zm59 472a42 42 0 1 1-59 0 42 42 0 0 1 59 0zm236 97a42 42 0 1 1-42 42 42 42 0 0 1 42-42zm236-569a42 42 0 1 1 59 0 42 42 0 0 1-59 0zm139 278a42 42 0 1 1 42-42 42 42 0 0 1-42 42zM736 645a42 42 0 1 1 59 0 42 42 0 0 1-59 0zM500 17a42 42 0 1 1 42-42 42 42 0 0 1-42 42zm0 583a250 250 0 1 1 250-250 250 250 0 0 1-250 250zm0-417a167 167 0 1 0 167 167 167 167 0 0 0-167-167z" horiz-adv-x="1000"/><glyph glyph-name="brightness-minus" unicode="" d="M583 392H417a42 42 0 0 1 0-84h166a42 42 0 0 1 0 84zm322-12-98 95v140a42 42 0 0 1-42 42H627l-97 98a42 42 0 0 1-60 0l-95-98H235a42 42 0 0 1-42-42V475l-98-95a42 42 0 0 1 0-60l98-97V85a42 42 0 0 1 42-42h140l98-98a42 42 0 0 1 59 0l97 98h138a42 42 0 0 1 42 42v138l98 97a42 42 0 0 1-2 60zM736 270a42 42 0 0 1-13-30V127H610a42 42 0 0 1-30-13l-80-80-80 80a42 42 0 0 1-30 13H277v113a42 42 0 0 1-13 30l-80 80 80 80a42 42 0 0 1 13 30v113h113a42 42 0 0 1 30 13l80 80 80-80a42 42 0 0 1 30-13h113V460a42 42 0 0 1 13-30l80-80z" horiz-adv-x="1000"/><glyph glyph-name="brightness-plus" unicode="" d="M583 392h-41v41a42 42 0 0 1-84 0v-41h-41a42 42 0 0 1 0-84h41v-41a42 42 0 0 1 84 0v41h41a42 42 0 0 1 0 84zm322-12-98 95v140a42 42 0 0 1-42 42H627l-97 98a42 42 0 0 1-60 0l-95-98H235a42 42 0 0 1-42-42V475l-98-95a42 42 0 0 1 0-60l98-97V85a42 42 0 0 1 42-42h140l98-98a42 42 0 0 1 59 0l97 98h138a42 42 0 0 1 42 42v138l98 97a42 42 0 0 1-2 60zM736 270a42 42 0 0 1-13-30V127H610a42 42 0 0 1-30-13l-80-80-80 80a42 42 0 0 1-30 13H277v113a42 42 0 0 1-13 30l-80 80 80 80a42 42 0 0 1 13 30v113h113a42 42 0 0 1 30 13l80 80 80-80a42 42 0 0 1 30-13h113V460a42 42 0 0 1 13-30l80-80z" horiz-adv-x="1000"/><glyph glyph-name="brightness" unicode="" d="M208 350a42 42 0 0 1-41 42h-42a42 42 0 0 1 0-84h42a42 42 0 0 1 41 42zm27-208-30-30a42 42 0 0 1 0-59 42 42 0 0 1 59 0l30 30a42 42 0 0 1-59 59zm265 500a42 42 0 0 1 42 41v42a42 42 0 0 1-84 0v-42a42 42 0 0 1 42-41zm236-98a42 42 0 0 1 29 12l30 30a42 42 0 1 1-59 59l-28-30a42 42 0 0 1 0-59 42 42 0 0 1 28-12zm-500 12a42 42 0 0 1 29-12 42 42 0 0 1 30 12 42 42 0 0 1 0 59l-30 30a42 42 0 0 1-60-59zm639-164h-42a42 42 0 0 1 0-84h42a42 42 0 0 1 0 84zM765 142a42 42 0 0 1-57-57l30-30a42 42 0 0 1 59 0 42 42 0 0 1 0 59zM500 579a229 229 0 1 1 229-229 230 230 0 0 1-229 229zm0-375a146 146 0 1 0 146 146 146 146 0 0 0-146-146zm0-146a42 42 0 0 1-42-41v-42a42 42 0 0 1 84 0v42a42 42 0 0 1-42 41z" horiz-adv-x="1000"/><glyph glyph-name="bring-bottom" unicode="" d="M875 267h-83a42 42 0 1 1 0-84h41V17H167v166h291a42 42 0 0 1 0 84h-41v208a42 42 0 0 1-42 42H125a42 42 0 0 1-42-42V-25a42 42 0 0 1 42-42h750a42 42 0 0 1 42 42v250a42 42 0 0 1-42 42zM167 433h166V267H167zm363 138 53 54V142a42 42 0 1 1 84 0v483l53-54a42 42 0 0 1 30-13 42 42 0 0 1 30 12 42 42 0 0 1 0 59L655 754a42 42 0 0 1-60 0L470 629a42 42 0 0 1 0-59 42 42 0 0 1 60 1z" horiz-adv-x="1000"/><glyph glyph-name="bring-front" unicode="" d="m470 129-53-54v483a42 42 0 0 1-84 0V75l-53 54a42 42 0 0 1-60 0 42 42 0 0 1 0-59L345-55a42 42 0 0 1 60 0L530 70a42 42 0 0 1 0 59 42 42 0 0 1-60 0zm447 596a42 42 0 0 1-42 42H125a42 42 0 0 1-42-42V475a42 42 0 0 1 42-42h83a42 42 0 0 1 0 84h-41v166h666V517H542a42 42 0 0 1 0-84h41V225a42 42 0 0 1 42-42h250a42 42 0 0 1 42 42v250zm-84-458H667v166h166z" horiz-adv-x="1000"/><glyph glyph-name="brush-alt" unicode="" d="M500 100a42 42 0 1 1 42-42 42 42 0 0 1-42 42zm250 708H250a42 42 0 0 1-42-41V392a125 125 0 0 1 125-125h42v-99a167 167 0 1 1 250 0v99h42a125 125 0 0 1 125 125v375a42 42 0 0 1-42 41zM500-25a83 83 0 0 0-55 145 42 42 0 0 1 13 31v116h84V151a42 42 0 0 1 13-31 83 83 0 0 0-55-145zm208 417a42 42 0 0 0-41-42H333a42 42 0 0 0-41 42v41h416zm0 125H292v208h416z" horiz-adv-x="1000"/><glyph glyph-name="bug" unicode="" d="M792 267h83a42 42 0 0 1 0 83h-83v42a215 215 0 0 1-9 56 208 208 0 0 1 134 194 42 42 0 0 1-84 0 125 125 0 0 0-89-120 208 208 0 0 1-77 61 108 108 0 0 1 0 17 167 167 0 0 1-334 0 108 108 0 0 1 0-17 208 208 0 0 1-79-61 125 125 0 0 0-87 120 42 42 0 0 1-84 0 208 208 0 0 1 134-194 215 215 0 0 1-9-56v-42h-83a42 42 0 0 1 0-83h83v-42a292 292 0 0 1 6-57A208 208 0 0 1 83-25a42 42 0 0 1 84 0 125 125 0 0 0 75 114 292 292 0 0 1 516 0 125 125 0 0 0 75-114 42 42 0 0 1 84 0 208 208 0 0 1-131 193 292 292 0 0 1 6 57zM458 21a208 208 0 0 0-166 204v167a125 125 0 0 0 125 125h41zm-41 579a83 83 0 0 0 166 0zm291-375A208 208 0 0 0 542 21v496h41a125 125 0 0 0 125-125z" horiz-adv-x="1000"/><glyph glyph-name="building" unicode="" d="M583 517h42a42 42 0 0 1 0 83h-42a42 42 0 0 1 0-83zm0-167h42a42 42 0 0 1 0 83h-42a42 42 0 0 1 0-83zM375 517h42a42 42 0 0 1 0 83h-42a42 42 0 0 1 0-83zm0-167h42a42 42 0 0 1 0 83h-42a42 42 0 0 1 0-83zM875 17h-42v708a42 42 0 0 1-41 42H208a42 42 0 0 1-41-42V17h-42a42 42 0 0 1 0-84h750a42 42 0 0 1 0 84zm-333 0h-84v166h84zm208 0H625v208a42 42 0 0 1-42 42H417a42 42 0 0 1-42-42V17H250v666h500z" horiz-adv-x="1000"/><glyph glyph-name="bullseye" unicode="" d="M500 642a292 292 0 1 1 292-292 292 292 0 0 1-292 292zm0-500a208 208 0 1 0 208 208 208 208 0 0 0-208-208zm0 333a125 125 0 1 1 125-125 125 125 0 0 1-125 125zm0-167a42 42 0 1 0 42 42 42 42 0 0 0-42-42zm0 500a458 458 0 1 1 458-458 458 458 0 0 1-458 458zm0-833a375 375 0 1 0 375 375A375 375 0 0 0 500-25z" horiz-adv-x="1000"/><glyph glyph-name="bus-alt" unicode="" d="M771 767H271a125 125 0 0 1-125-125V142a125 125 0 0 1 83-118v-49a42 42 0 0 1 83 0v42h417v-42a42 42 0 0 1 83 0v49a125 125 0 0 1 84 118v500a125 125 0 0 1-125 125zM229 517h250V350H229zm583-375a42 42 0 0 0-41-42H271a42 42 0 0 0-42 42v125h583zm0 208H562v167h250zm0 250H229v42a42 42 0 0 0 42 41h500a42 42 0 0 0 41-41zM672 145a42 42 0 0 1 15-3 42 42 0 0 1 42 41 57 57 0 0 1 0 9 27 27 0 0 1-2 7 32 32 0 0 1-4 8 66 66 0 0 1-5 6l-6 5a32 32 0 0 1-8 4 27 27 0 0 1-8 3 42 42 0 0 1-38-11 66 66 0 0 1-5-6 32 32 0 0 1-4-8 27 27 0 0 1-2-7 57 57 0 0 1 0-9 42 42 0 0 1 12-29 42 42 0 0 1 13-10zm-334 0a42 42 0 0 1 16-3 42 42 0 0 1 42 41 57 57 0 0 1 0 9 27 27 0 0 1-3 7 32 32 0 0 1-3 8 66 66 0 0 1-5 6l-7 5-7 4-9 3a42 42 0 0 1-37-11 66 66 0 0 1-5-6 32 32 0 0 1-4-8 27 27 0 0 1-3-7 57 57 0 0 1 0-9 42 42 0 0 1 12-29 42 42 0 0 1 13-10z" horiz-adv-x="1000"/><glyph glyph-name="bus-school" unicode="" d="M42 329V163a42 42 0 0 1 41-42h42a125 125 0 0 1 250 0h250a125 125 0 0 1 250 0h42a42 42 0 0 1 41 42v416a125 125 0 0 1-125 125H352a125 125 0 0 1-119-85l-60-180-113-75a42 42 0 0 1-18-35zm833 125h-83v167h41a42 42 0 0 0 42-42zM708 121a42 42 0 1 0 42-42 42 42 0 0 0-42 42zm-83 250h250V204h-33a125 125 0 0 1-185 0h-32zm0 250h83V454h-83zM458 371h84V204h-84zm0 250h84V454h-84zm-83-167H266l46 139a42 42 0 0 0 40 28h23zM208 121a42 42 0 1 0 42-42 42 42 0 0 0-42 42zm-83 187 96 63h154V204h-32a125 125 0 0 1-185 0h-33z" horiz-adv-x="1000"/><glyph glyph-name="bus" unicode="" d="M354 142a42 42 0 0 1 42 41 57 57 0 0 1 0 9 27 27 0 0 1-3 7 32 32 0 0 1-3 8l-5 6a42 42 0 0 1-14 9 42 42 0 0 1-25 3l-8-2-7-4a66 66 0 0 1-6-5l-5-6a32 32 0 0 1-4-8 27 27 0 0 1-3-7 57 57 0 0 1 0-9 42 42 0 0 1 42-41zm334 0a42 42 0 0 1 41 41 57 57 0 0 1 0 9 27 27 0 0 1-2 7 32 32 0 0 1-4 8l-5 6a48 48 0 0 1-14 9 42 42 0 0 1-31 0 48 48 0 0 1-14-9l-5-6a32 32 0 0 1-4-8 27 27 0 0 1-2-7 57 57 0 0 1 0-9 42 42 0 0 1 12-29 42 42 0 0 1 28-12zM563 642h-84a42 42 0 0 1 0-84h84a42 42 0 0 1 0 84zm208 125H271a125 125 0 0 1-125-125V142a125 125 0 0 1 83-118v-49a42 42 0 0 1 83 0v42h417v-42a42 42 0 0 1 83 0v49a125 125 0 0 1 84 118v500a125 125 0 0 1-125 125zm41-625a42 42 0 0 0-41-42H271a42 42 0 0 0-42 42v125h583zm0 208H229v292a42 42 0 0 0 42 41h500a42 42 0 0 0 41-41z" horiz-adv-x="1000"/><glyph glyph-name="calcualtor" unicode="" d="M530 130a42 42 0 0 1-7 5 23 23 0 0 1-7 3 25 25 0 0 1-8 3 39 39 0 0 1-24-3 38 38 0 0 1-22-22 35 35 0 0 1-4-16 42 42 0 0 1 3-16 61 61 0 0 1 9-14 42 42 0 0 1 30-12 35 35 0 0 1 16 4 48 48 0 0 1 14 8 42 42 0 0 1 12 30 42 42 0 0 1-4 16 42 42 0 0 1-8 14zM356 301a23 23 0 0 1-7 4 25 25 0 0 1-8 3 36 36 0 0 1-16 0l-7-2-8-4-6-5a44 44 0 0 1-12-30 42 42 0 0 1 12-30 48 48 0 0 1 13-9 42 42 0 0 1 58 39 44 44 0 0 1-12 29zm7-171a42 42 0 0 1-14 8 42 42 0 0 1-24 4l-7-3a32 32 0 0 1-8-4 66 66 0 0 1-6-5 42 42 0 0 1-9-13 39 39 0 0 1 0-32 48 48 0 0 1 9-14 42 42 0 0 1 29-13 35 35 0 0 1 16 4 48 48 0 0 1 14 8 48 48 0 0 1 9 14 39 39 0 0 1 0 32 42 42 0 0 1-9 14zm121 175a42 42 0 0 1-14-9 44 44 0 0 1-12-29 42 42 0 0 1 58-39 48 48 0 0 1 14 9 42 42 0 0 1 12 30 44 44 0 0 1-12 29 42 42 0 0 1-46 9zm212-175a48 48 0 0 1-13 8 42 42 0 0 1-46-8 42 42 0 0 1-9-14 39 39 0 0 1 0-32 48 48 0 0 1 9-14 42 42 0 0 1 30-12 35 35 0 0 1 16 4 48 48 0 0 1 13 8 42 42 0 0 1 9 46 42 42 0 0 1-9 14zm-29 512H333a42 42 0 0 1-41-42V433a42 42 0 0 1 41-41h334a42 42 0 0 1 41 41v167a42 42 0 0 1-41 42zm-42-167H375v83h250zm125 333H250a125 125 0 0 1-125-125V17a125 125 0 0 1 125-125h500A125 125 0 0 1 875 17v666a125 125 0 0 1-125 125zm42-791a42 42 0 0 0-42-42H250a42 42 0 0 0-42 42v666a42 42 0 0 0 42 42h500a42 42 0 0 0 42-42zM690 301a23 23 0 0 1-8 4 25 25 0 0 1-7 3 36 36 0 0 1-17 0l-7-3-8-4-6-5a44 44 0 0 1-12-29 42 42 0 0 1 58-39 48 48 0 0 1 13 9 42 42 0 0 1 12 30 44 44 0 0 1-12 29z" horiz-adv-x="1000"/><glyph glyph-name="calculator-alt" unicode="" d="M229 517h21v-21a42 42 0 0 1 83 0v21h21a42 42 0 0 1 0 83h-21v21a42 42 0 0 1-83 0v-21h-21a42 42 0 0 1 0-83zM203 53a42 42 0 0 1 59 0l30 30 29-30a42 42 0 0 1 59 0 42 42 0 0 1 0 59l-30 30 30 29a42 42 0 0 1-59 59l-29-30-30 30a42 42 0 0 1-59-59l30-29-30-30a42 42 0 0 1 0-59zm630 755H167A125 125 0 0 1 42 683V17a125 125 0 0 1 125-125h666A125 125 0 0 1 958 17v666a125 125 0 0 1-125 125zM458-25H167a42 42 0 0 0-42 42v291h333zm0 417H125v291a42 42 0 0 0 42 42h291zM875 17a42 42 0 0 0-42-42H542v333h333zm0 375H542v333h291a42 42 0 0 0 42-42zM646 163h125a42 42 0 0 1 0 83H646a42 42 0 0 1 0-83zm125 437H646a42 42 0 0 1 0-83h125a42 42 0 0 1 0 83zM646 38h125a42 42 0 0 1 0 83H646a42 42 0 0 1 0-83z" horiz-adv-x="1000"/><glyph glyph-name="calendar-alt" unicode="" d="M500 58a42 42 0 1 1-42 42 42 42 0 0 1 42-42zm208 0a42 42 0 1 1-41 42 42 42 0 0 1 41-42zm0 167a42 42 0 1 1-41 42 42 42 0 0 1 41-42zm-208 0a42 42 0 1 1-42 42 42 42 0 0 1 42-42zm292 500h-42v42a42 42 0 0 1-83 0v-42H333v42a42 42 0 0 1-83 0v-42h-42A125 125 0 0 1 83 600V17a125 125 0 0 1 125-125h584A125 125 0 0 1 917 17v583a125 125 0 0 1-125 125zm41-708a42 42 0 0 0-41-42H208a42 42 0 0 0-41 42v375h666zm0 458H167v125a42 42 0 0 0 41 42h42v-42a42 42 0 0 1 83 0v42h334v-42a42 42 0 0 1 83 0v42h42a42 42 0 0 0 41-42zM292 225a42 42 0 1 1-42 42 42 42 0 0 1 42-42zm0-167a42 42 0 1 1-42 42 42 42 0 0 1 42-42z" horiz-adv-x="1000"/><glyph glyph-name="calendar-slash" unicode="" d="M486 558h139v-41a42 42 0 0 1 83 0v41h42a42 42 0 0 0 42-41V392h-56a42 42 0 0 1 0-84h56v-55a42 42 0 1 1 83 0v264a125 125 0 0 1-125 125h-42v41a42 42 0 0 1-83 0v-41H486a42 42 0 0 1 0-84zM905 5l-67 66-683 684a42 42 0 0 1-60-60l80-79a125 125 0 0 1-50-99V100A125 125 0 0 1 250-25h500a125 125 0 0 1 54 12l41-41a42 42 0 0 1 60 0 42 42 0 0 1 0 59zM208 517a42 42 0 0 0 28 38l164-163H208zm42-459a42 42 0 0 0-42 42v208h275L733 58z" horiz-adv-x="1000"/><glyph glyph-name="calender" unicode="" d="M792 683h-84v42a42 42 0 0 1-83 0v-42H375v42a42 42 0 0 1-83 0v-42h-84A125 125 0 0 1 83 558V58A125 125 0 0 1 208-67h584A125 125 0 0 1 917 58v500a125 125 0 0 1-125 125zm41-625a42 42 0 0 0-41-41H208a42 42 0 0 0-41 41v292h666zm0 375H167v125a42 42 0 0 0 41 42h84v-42a42 42 0 0 1 83 0v42h250v-42a42 42 0 0 1 83 0v42h84a42 42 0 0 0 41-42z" horiz-adv-x="1000"/><glyph glyph-name="calling" unicode="" d="M853 475a42 42 0 1 1-42 42 42 42 0 0 1 42-42zm-125 0a42 42 0 1 1-42 42 42 42 0 0 1 42-42zm-125 0a42 42 0 1 1-42 42 42 42 0 0 1 42-42zm185-167c-9 0-19 3-28 5a393 393 0 0 0-55 17 83 83 0 0 1-103-42l-9-19a520 520 0 0 0-111 84 535 535 0 0 0-84 110l19 12a83 83 0 0 1 41 103 430 430 0 0 0-16 55c-2 10-4 19-5 28a125 125 0 0 1-125 104H187a125 125 0 0 1-93-42 125 125 0 0 1-31-99A792 792 0 0 1 750-63a107 107 0 0 1 16 0A125 125 0 0 1 891 62v125a125 125 0 0 1-103 121zm20-250a42 42 0 0 0-48-41 713 713 0 0 0-411 202 714 714 0 0 0-202 414 42 42 0 0 0 11 34 42 42 0 0 0 31 14h125a42 42 0 0 0 41-33q3-17 7-34a463 463 0 0 1 19-64l-59-27a42 42 0 0 1-20-56 604 604 0 0 1 292-292 42 42 0 0 1 31 0 42 42 0 0 1 24 22l26 58a570 570 0 0 1 66-19c11-2 22-4 34-6a42 42 0 0 0 32-42z" horiz-adv-x="1000"/><glyph glyph-name="camera-change" unicode="" d="m512 633 63-63a42 42 0 0 1 59 0 42 42 0 0 1 5 51h153a42 42 0 0 1 0 83H639a42 42 0 0 1-5 51 42 42 0 0 1-59 0l-63-63a42 42 0 0 1-9-14 42 42 0 0 1 0-31 42 42 0 0 1 9-14zm443-163a42 42 0 0 1-9 14l-62 62a42 42 0 0 1-59 0 42 42 0 0 1-6-50H667a42 42 0 0 1 0-83h152a42 42 0 0 1 6-51 42 42 0 0 1 59 0l62 63a42 42 0 0 1 9 13 42 42 0 0 1 0 32zm-497-37a167 167 0 1 1 167-166 167 167 0 0 1-167 166zm0-250a83 83 0 1 0 84 84 83 83 0 0 0-84-84zm375 125a42 42 0 0 1-41-41V58a42 42 0 0 0-42-41H167a42 42 0 0 0-42 41v334a42 42 0 0 0 42 41h83a42 42 0 0 1 42 29l22 68a42 42 0 0 0 38 28h65a42 42 0 0 1 0 84h-65a125 125 0 0 1-119-86l-13-39h-53A125 125 0 0 1 42 392V58A125 125 0 0 1 167-67h583A125 125 0 0 1 875 58v209a42 42 0 0 1-42 41z" horiz-adv-x="1000"/><glyph glyph-name="camera-plus" unicode="" d="M833 413a42 42 0 0 1-41-42V79a42 42 0 0 0-42-41H167a42 42 0 0 0-42 41v334a42 42 0 0 0 42 41h83a42 42 0 0 1 42 29l22 68a42 42 0 0 0 40 28h229a42 42 0 0 1 0 84H352a125 125 0 0 1-119-86l-13-42h-53A125 125 0 0 1 42 410V77A125 125 0 0 1 167-48h583A125 125 0 0 1 875 77v292a42 42 0 0 1-42 44zm-375 41a167 167 0 1 1 167-166 167 167 0 0 1-167 166zm0-250a83 83 0 1 0 84 84 83 83 0 0 0-84-84zm459 459h-42v41a42 42 0 0 1-83 0v-41h-42a42 42 0 0 1 0-84h42v-41a42 42 0 0 1 83 0v41h42a42 42 0 0 1 0 84z" horiz-adv-x="1000"/><glyph glyph-name="camera-slash" unicode="" d="M155 755a42 42 0 0 1-60-60l117-116h-4A125 125 0 0 1 83 454V121A125 125 0 0 1 208-4h587l50-51a42 42 0 0 1 60 0 42 42 0 0 1 0 59zm270-389 112-112a83 83 0 0 0-37-8 83 83 0 0 0-83 83 83 83 0 0 0 8 37zM208 79a42 42 0 0 0-41 42v333a42 42 0 0 0 41 42h87l70-71a163 163 0 0 1-32-96 167 167 0 0 1 167-166 163 163 0 0 1 97 32L712 79zm584 500h-54l-13 42a125 125 0 0 1-118 83H423a42 42 0 0 1 0-83h184a42 42 0 0 0 39-28l23-68a42 42 0 0 1 39-29h84a42 42 0 0 0 41-42V211a42 42 0 1 1 84 0v243a125 125 0 0 1-125 125z" horiz-adv-x="1000"/><glyph glyph-name="camera" unicode="" d="M792 579h-54l-13 42a125 125 0 0 1-118 83H393a125 125 0 0 1-118-85l-13-42h-54A125 125 0 0 1 83 452V119A125 125 0 0 1 208-6h584a125 125 0 0 1 125 125v333a125 125 0 0 1-125 127zm41-458a42 42 0 0 0-41-42H208a42 42 0 0 0-41 42v333a42 42 0 0 0 41 42h84a42 42 0 0 1 41 28l23 69a42 42 0 0 0 39 28h214a42 42 0 0 0 39-28l23-69a42 42 0 0 1 37-28h84a42 42 0 0 0 41-42zM500 496a167 167 0 1 1 167-167 167 167 0 0 1-167 167zm0-250a83 83 0 1 0 83 83 83 83 0 0 0-83-83z" horiz-adv-x="1000"/><glyph glyph-name="cancel" unicode="" d="M907 377 699 627a42 42 0 0 1-32 15H208A125 125 0 0 1 83 517V183A125 125 0 0 1 208 58h459a42 42 0 0 1 32 15l208 250a42 42 0 0 1 0 54zM647 142H208a42 42 0 0 0-41 41v334a42 42 0 0 0 41 41h439l174-208zM530 463a42 42 0 0 1-60 0l-53-54-54 54a42 42 0 1 1-59-59l54-54-54-54a42 42 0 0 1 0-59 42 42 0 0 1 59 0l54 54 53-54a42 42 0 0 1 60 0 42 42 0 0 1 0 59l-55 54 55 54a42 42 0 0 1 0 59z" horiz-adv-x="1000"/><glyph glyph-name="capsule" unicode="" d="M813 663a213 213 0 0 1-302 0L188 339A213 213 0 1 1 489 38l324 323a213 213 0 0 1 0 302zM430 96a134 134 0 0 0-184 0 130 130 0 0 0 0 184l133 133 184-184zm324 324L621 288 438 471l132 133a130 130 0 0 0 184-184z" horiz-adv-x="1000"/><glyph glyph-name="capture" unicode="" d="M125 475a42 42 0 0 1 42 42v125a42 42 0 0 0 41 41h125a42 42 0 0 1 0 84H208A125 125 0 0 1 83 642V517a42 42 0 0 1 42-42zM333 17H208a42 42 0 0 0-41 41v125a42 42 0 0 1-84 0V58A125 125 0 0 1 208-67h125a42 42 0 0 1 0 84zm167 500a167 167 0 1 1 167-167 167 167 0 0 1-167 167zm0-250a83 83 0 1 0 83 83 83 83 0 0 0-83-83zm292 500H667a42 42 0 0 1 0-84h125a42 42 0 0 0 41-41V517a42 42 0 0 1 84 0v125a125 125 0 0 1-125 125zm83-542a42 42 0 0 1-42-42V58a42 42 0 0 0-41-41H667a42 42 0 0 1 0-84h125A125 125 0 0 1 917 58v125a42 42 0 0 1-42 42z" horiz-adv-x="1000"/><glyph glyph-name="car-sideview" unicode="" d="M792 454h-14l-52 130a125 125 0 0 1-116 79H360a125 125 0 0 1-122-101l-22-108h-8A125 125 0 0 1 83 329V204a42 42 0 0 1 42-41h42a125 125 0 0 1 250 0h166a125 125 0 0 1 250 0h42a42 42 0 0 1 42 41v125a125 125 0 0 1-125 125zM542 579h68a42 42 0 0 0 39-26l39-99H542zm-223-33a42 42 0 0 0 42 33h97V454H301zm-27-425a42 42 0 1 0 41 42 42 42 0 0 0-41-42zm416 0a42 42 0 1 0 42 42 42 42 0 0 0-42-42zm125 125h-32a125 125 0 0 1-185 0H384a125 125 0 0 1-185 0h-32v83a42 42 0 0 0 41 42h584a42 42 0 0 0 41-42z" horiz-adv-x="1000"/><glyph glyph-name="car-slash" unicode="" d="M292 308a42 42 0 1 1 41-41 42 42 0 0 1-41 41zm531 162-56 170a125 125 0 0 1-119 83H402a42 42 0 0 1 0-83h246a42 42 0 0 0 42-29l44-136h-82a42 42 0 0 1 0-83h140a42 42 0 0 0 41-42V211a42 42 0 1 1 84 0v139a125 125 0 0 1-94 120zM157 755a42 42 0 0 1-62-60l118-117-36-108a125 125 0 0 1-94-120V183a125 125 0 0 1 84-117V17a42 42 0 0 1 83 0v41h483l17-17V17a42 42 0 0 1 42-42 38 38 0 0 1 19 5l34-35a42 42 0 0 1 60 0 42 42 0 0 1 0 60zm125-242 37-38h-53zm-74-371a42 42 0 0 0-41 41v167a42 42 0 0 0 41 42h192l83-84h-25a42 42 0 0 1 0-83h84a38 38 0 0 1 19 5l89-88z" horiz-adv-x="1000"/><glyph glyph-name="car-wash" unicode="" d="M313 683a42 42 0 0 1 29 12l42 42a42 42 0 0 1-59 59l-42-41a42 42 0 0 1 0-60 42 42 0 0 1 30-12zm166 0a42 42 0 0 1 30 12l41 42a42 42 0 1 1-59 59l-41-41a42 42 0 0 1 0-60 42 42 0 0 1 29-12zm167 0a42 42 0 0 1 29 12l42 42a42 42 0 1 1-59 59l-42-41a42 42 0 0 1 0-60 42 42 0 0 1 30-12zm101-484a32 32 0 0 1-4 8l-5 6-6 5a32 32 0 0 1-8 4 25 25 0 0 1-8 2 42 42 0 0 1-37-11 66 66 0 0 1-5-6 32 32 0 0 1-4-8 27 27 0 0 1-2-7 57 57 0 0 1 0-9 42 42 0 0 1 12-29 38 38 0 0 1 13-9 42 42 0 0 1 15-3 42 42 0 0 1 42 41 57 57 0 0 1 0 9 27 27 0 0 1-3 7zm76 188-56 169a125 125 0 0 1-119 84H352a125 125 0 0 1-119-84l-56-169a125 125 0 0 1-94-120V100a125 125 0 0 1 84-117v-50a42 42 0 0 1 83 0v42h500v-42a42 42 0 0 1 83 0v49a125 125 0 0 1 84 118v167a125 125 0 0 1-94 120zM312 530a42 42 0 0 0 40 28h296a42 42 0 0 0 42-28l44-138H266zm521-430a42 42 0 0 0-41-42H208a42 42 0 0 0-41 42v167a42 42 0 0 0 41 41h584a42 42 0 0 0 41-41zM542 225h-84a42 42 0 0 1 0-83h84a42 42 0 0 1 0 83zm-212-26a32 32 0 0 1-4 8l-5 6a42 42 0 0 1-45 9 42 42 0 0 1-14-9 66 66 0 0 1-5-6 32 32 0 0 1-4-8 27 27 0 0 1-3-7 57 57 0 0 1 0-9 42 42 0 0 1 71-29 42 42 0 0 1 12 29 57 57 0 0 1 0 9 27 27 0 0 1-3 7z" horiz-adv-x="1000"/><glyph glyph-name="car" unicode="" d="M276 305a38 38 0 0 1-23-22 42 42 0 0 1 55-55 48 48 0 0 1 13 9 48 48 0 0 1 9 14 35 35 0 0 1 3 16 44 44 0 0 1-12 29 42 42 0 0 1-45 9zm547 167-56 168a125 125 0 0 1-119 83H352a125 125 0 0 1-119-83l-56-170a125 125 0 0 1-94-120V183a125 125 0 0 1 84-117V17a42 42 0 0 1 83 0v41h500V17a42 42 0 0 1 83 0v49a125 125 0 0 1 84 117v167a125 125 0 0 1-94 120zM312 613a42 42 0 0 0 40 29h296a42 42 0 0 0 42-29l44-138H266zm521-430a42 42 0 0 0-41-41H208a42 42 0 0 0-41 41v167a42 42 0 0 0 41 42h584a42 42 0 0 0 41-42zM693 305a38 38 0 0 1-23-22 42 42 0 0 1 54-55 38 38 0 0 1 23 23 35 35 0 0 1 3 16 44 44 0 0 1-12 29 42 42 0 0 1-45 9zm-151 3h-84a42 42 0 0 1 0-83h84a42 42 0 0 1 0 83z" horiz-adv-x="1000"/><glyph glyph-name="card-atm" unicode="" d="M792 663H208A125 125 0 0 1 83 538V163A125 125 0 0 1 208 38h584a125 125 0 0 1 125 125v375a125 125 0 0 1-125 125zm41-500a42 42 0 0 0-41-42H208a42 42 0 0 0-41 42v375a42 42 0 0 0 41 41h584a42 42 0 0 0 41-41zM667 413a125 125 0 0 1-63-18 125 125 0 1 1 0-215 125 125 0 1 1 63 233zM549 246a42 42 0 0 0-7 0 42 42 0 0 0 0 83 42 42 0 0 0 7 0 117 117 0 0 1 0-80zm118 0a42 42 0 1 0 41 42 42 42 0 0 0-41-42z" horiz-adv-x="1000"/><glyph glyph-name="caret-right" unicode="" d="M813 386 229 723a42 42 0 0 1-41 0 42 42 0 0 1-21-36V13a42 42 0 0 1 21-36 42 42 0 0 1 41 0l584 337a42 42 0 0 1 0 72zM250 85v530l458-265z" horiz-adv-x="1000"/><glyph glyph-name="cart" unicode="" d="M792 558H667v42a167 167 0 0 1-334 0v-42H208a42 42 0 0 1-41-41V58A125 125 0 0 1 292-67h416A125 125 0 0 1 833 58v459a42 42 0 0 1-41 41zm-375 42a83 83 0 0 0 166 0v-42H417zM750 58a42 42 0 0 0-42-41H292a42 42 0 0 0-42 41v417h83v-42a42 42 0 0 1 84 0v42h166v-42a42 42 0 0 1 84 0v42h83z" horiz-adv-x="1000"/><glyph glyph-name="cell" unicode="" d="M895 653 708 760a42 42 0 0 1-41 0l-167-95-167 95a42 42 0 0 1-41 0L105 653a42 42 0 0 1-22-36V403a42 42 0 0 1 22-36l166-94V83a42 42 0 0 1 22-36L480-60a42 42 0 0 1 42 0L708 47a42 42 0 0 1 22 36v190l166 94a42 42 0 0 1 21 36v214a42 42 0 0 1-22 36zM167 428v166l146 84 145-84V428l-145-84zm479-320L500 24l-146 84v166l146 83 146-83zm187 319-145-83-146 83v167l146 84 145-84z" horiz-adv-x="1000"/><glyph glyph-name="celsius" unicode="" d="M875 58H625a125 125 0 0 0-125 125v334a125 125 0 0 0 125 125h250a42 42 0 0 1 0 83H625a208 208 0 0 1-208-208V183A208 208 0 0 1 625-25h250a42 42 0 0 1 0 83zM208 725a125 125 0 1 1 125-125 125 125 0 0 1-125 125zm0-167a42 42 0 1 0 42 42 42 42 0 0 0-42-42z" horiz-adv-x="1000"/><glyph glyph-name="chart-bar-alt" unicode="" d="M875 17H167v83h125a42 42 0 0 1 0 83H167v84h458a42 42 0 0 1 0 83H167v83h291a42 42 0 0 1 0 84H167v83h625a42 42 0 0 1 0 83H167v42a42 42 0 0 1-84 0V-25a42 42 0 0 1 42-42h750a42 42 0 0 1 0 84z" horiz-adv-x="1000"/><glyph glyph-name="chart-bar" unicode="" d="M875 17h-42v625a42 42 0 0 1-83 0V17h-83v291a42 42 0 0 1-84 0V17h-83v458a42 42 0 0 1-83 0V17h-84v125a42 42 0 0 1-83 0V17h-83v708a42 42 0 0 1-84 0V-25a42 42 0 0 1 42-42h750a42 42 0 0 1 0 84z" horiz-adv-x="1000"/><glyph glyph-name="chart-down" unicode="" d="M875 392a42 42 0 0 1-42-42V242L571 505a42 42 0 0 1-59 0L375 367 155 588a42 42 0 0 1-60-59l250-250a42 42 0 0 1 60 0l137 137 233-233H667a42 42 0 0 1 0-83h208a42 42 0 0 1 16 3 42 42 0 0 1 22 23 42 42 0 0 1 4 16v208a42 42 0 0 1-42 42z" horiz-adv-x="1000"/><glyph glyph-name="chart-growth-alt" unicode="" d="M875 17H167v83h125a42 42 0 0 1 0 83H167v84h291a42 42 0 0 1 0 83H167v83h458a42 42 0 0 1 0 84H167v83h625a42 42 0 0 1 0 83H167v42a42 42 0 0 1-84 0V-25a42 42 0 0 1 42-42h750a42 42 0 0 1 0 84z" horiz-adv-x="1000"/><glyph glyph-name="chart-growth" unicode="" d="M875 17h-42v625a42 42 0 0 1-83 0V17h-83v458a42 42 0 0 1-84 0V17h-83v291a42 42 0 0 1-83 0V17h-84v125a42 42 0 0 1-83 0V17h-83v708a42 42 0 0 1-84 0V-25a42 42 0 0 1 42-42h750a42 42 0 0 1 0 84z" horiz-adv-x="1000"/><glyph glyph-name="chart-line" unicode="" d="M292 183a63 63 0 0 1 62 63 32 32 0 0 1 0 6l116 116h20l67-67v-3a63 63 0 1 1 125 0v3l151 153a63 63 0 1 1-62 63 32 32 0 0 1 0-7L620 360h-6l-72 73a62 62 0 0 1-125 0L292 308a63 63 0 0 1 0-125zM854 17H146v708a42 42 0 0 1-83 0V-25a42 42 0 0 1 41-42h750a42 42 0 0 1 0 84z" horiz-adv-x="1000"/><glyph glyph-name="chart-pie-alt" unicode="" d="M792 350H500v292c0 25-17 41-42 41-208 0-375-166-375-375S250-67 458-67s375 167 375 375c0 25-16 42-41 42zM500 21C342-4 192 108 171 267c-25 158 87 308 246 329V308c0-25 16-41 41-41h288C729 138 629 38 500 21zm125 746c-25 0-42-17-42-42V475c0-25 17-42 42-42h250c25 0 42 17 42 42 0 163-129 292-292 292zm42-250v162c83-16 146-79 162-162H667z" horiz-adv-x="1000"/><glyph glyph-name="chart-pie" unicode="" d="M500 767A417 417 0 1 1 705-12h5a417 417 0 0 1-210 779zm42-87a333 333 0 0 0 288-288H542zM500 17a333 333 0 0 0-42 663V350a45 45 0 0 1 3-15v-6L628 43a325 325 0 0 0-128-26zm201 68L572 308h258A333 333 0 0 0 701 85z" horiz-adv-x="1000"/><glyph glyph-name="chart" unicode="" d="M500 600a42 42 0 0 1-42-42V142a42 42 0 0 1 84 0v416a42 42 0 0 1-42 42zM292 350a42 42 0 0 1-42-42V142a42 42 0 0 1 83 0v166a42 42 0 0 1-41 42zm416 83a42 42 0 0 1-41-41V142a42 42 0 0 1 83 0v250a42 42 0 0 1-42 41zm84 334H208A125 125 0 0 1 83 642V58A125 125 0 0 1 208-67h584A125 125 0 0 1 917 58v584a125 125 0 0 1-125 125zm41-709a42 42 0 0 0-41-41H208a42 42 0 0 0-41 41v584a42 42 0 0 0 41 41h584a42 42 0 0 0 41-41z" horiz-adv-x="1000"/><glyph glyph-name="chat-bubble-user" unicode="" d="M608 379a135 135 0 0 1 29 84 137 137 0 0 1-274 0 135 135 0 0 1 30-84 208 208 0 0 1-84-96 42 42 0 1 1 77-33 125 125 0 0 0 114 76 125 125 0 0 0 115-76 42 42 0 0 1 38-25 45 45 0 0 1 16 3 42 42 0 0 1 22 55 208 208 0 0 1-83 96zm-108 31a54 54 0 1 0 54 53 54 54 0 0 0-54-53zm250 357H250a125 125 0 0 1-125-125V183A125 125 0 0 1 250 58h108L470-55a42 42 0 0 1 30-12 42 42 0 0 1 27 10L661 58h89a125 125 0 0 1 125 125v459a125 125 0 0 1-125 125zm42-584a42 42 0 0 0-42-41H646a42 42 0 0 1-27-10L502 32l-97 98a42 42 0 0 1-30 12H250a42 42 0 0 0-42 41v459a42 42 0 0 0 42 41h500a42 42 0 0 0 42-41z" horiz-adv-x="1000"/><glyph glyph-name="chat-info" unicode="" d="M804 695a42 42 0 0 1 59 0 48 48 0 0 1 9 14 42 42 0 0 1 3 16 42 42 0 0 1-12 30l-6 5a32 32 0 0 1-8 3 42 42 0 0 1-45-8 42 42 0 0 1-12-30 42 42 0 0 1 3-16 48 48 0 0 1 9-14zm29-53a42 42 0 0 1-41-42V433a42 42 0 0 1 83 0v167a42 42 0 0 1-42 42zm3-334a42 42 0 0 1-46-36A292 292 0 0 0 500 17H267l27 26a42 42 0 0 1 0 59 292 292 0 0 0 206 498 288 288 0 0 0 145-39 42 42 0 0 1 42 72 368 368 0 0 1-187 50A375 375 0 0 1 208 74L137 5a42 42 0 0 1-9-46 42 42 0 0 1 39-26h333a375 375 0 0 1 372 329 42 42 0 0 1-36 46z" horiz-adv-x="1000"/><glyph glyph-name="chat" unicode="" d="M750 767H250a125 125 0 0 1-125-125V183A125 125 0 0 1 250 58h108L470-55a42 42 0 0 1 30-12 42 42 0 0 1 27 10L661 58h89a125 125 0 0 1 125 125v459a125 125 0 0 1-125 125zm42-584a42 42 0 0 0-42-41H646a42 42 0 0 1-27-10L502 32l-97 98a42 42 0 0 1-30 12H250a42 42 0 0 0-42 41v459a42 42 0 0 0 42 41h500a42 42 0 0 0 42-41z" horiz-adv-x="1000"/><glyph glyph-name="check-circle" unicode="" d="M613 484 435 305l-69 68a42 42 0 1 1-59-58l98-99a42 42 0 0 1 30-12 42 42 0 0 1 29 12l208 209a42 42 0 0 1 0 59 42 42 0 0 1-59 0zM500 767a417 417 0 1 1 417-417 417 417 0 0 1-417 417zm0-750a333 333 0 1 0 333 333A333 333 0 0 0 500 17z" horiz-adv-x="1000"/><glyph glyph-name="check-square" unicode="" d="M425 235a42 42 0 0 1 60 0l170 170a42 42 0 0 1-60 60L455 324l-50 51a42 42 0 0 1-60-60zm450 532H125a42 42 0 0 1-42-42V-25a42 42 0 0 1 42-42h750a42 42 0 0 1 42 42v750a42 42 0 0 1-42 42zM833 17H167v666h666z" horiz-adv-x="1000"/><glyph glyph-name="check" unicode="" d="M780 550a42 42 0 0 1-60 0L410 239 280 370a42 42 0 1 1-60-62l160-160a42 42 0 0 1 60 0l340 340a42 42 0 0 1 0 62z" horiz-adv-x="1000"/><glyph glyph-name="circle-layer" unicode="" d="M625 767a292 292 0 0 1-287-239 250 250 0 0 1-130-195A208 208 0 1 1 483 58a250 250 0 0 1 195 129 292 292 0 0 1-53 580zM417 124c0-4 0-9-3-13a125 125 0 1 0-152 152l12 4a122 122 0 0 0 143-143zm208 153a75 75 0 0 0-2-8 156 156 0 0 0-7-23 167 167 0 0 0-113-100c0 8 0 15-2 22s0 12 0 17-5 16-8 24-3 10-5 15a175 175 0 0 1-12 23c0 3-4 8-6 11a221 221 0 0 1-25 31l-9 7a230 230 0 0 1-22 18 121 121 0 0 1-14 8 167 167 0 0 1-21 11 97 97 0 0 1-17 5 130 130 0 0 1-21 7c-6 0-12 0-19 2l-25 3a167 167 0 0 0 100 113 136 136 0 0 0 22 7l8 2a156 156 0 0 0 31 3 167 167 0 0 0 167-167 160 160 0 0 0-3-31zm83 6v25a250 250 0 0 1-250 250h-25a208 208 0 1 0 275-275z" horiz-adv-x="1000"/><glyph glyph-name="circle" unicode="" d="M500 767a417 417 0 1 1 417-417 417 417 0 0 1-417 417zm0-750a333 333 0 1 0 333 333A333 333 0 0 0 500 17z" horiz-adv-x="1000"/><glyph glyph-name="circuit" unicode="" d="M417 308a42 42 0 1 1 41-41 42 42 0 0 1-41 41zm0 167a42 42 0 1 1 41-42 42 42 0 0 1-41 42zm166 0a42 42 0 1 1 42-42 42 42 0 0 1-42 42zm292-167a42 42 0 0 1 0 84h-83v83h83a42 42 0 0 1 0 83h-91a125 125 0 0 1-76 76v91a42 42 0 0 1-83 0v-83h-83v83a42 42 0 0 1-84 0v-83h-83v83a42 42 0 0 1-83 0v-91a125 125 0 0 1-76-76h-91a42 42 0 0 1 0-83h83v-83h-83a42 42 0 0 1 0-84h83v-83h-83a42 42 0 0 1 0-83h91a125 125 0 0 1 76-76v-91a42 42 0 0 1 83 0v83h83v-83a42 42 0 0 1 84 0v83h83v-83a42 42 0 0 1 83 0v91a125 125 0 0 1 76 76h91a42 42 0 0 1 0 83h-83v83zM708 183a42 42 0 0 0-41-41H333a42 42 0 0 0-41 41v334a42 42 0 0 0 41 41h334a42 42 0 0 0 41-41zM583 308a42 42 0 1 1 42-41 42 42 0 0 1-42 41z" horiz-adv-x="1000"/><glyph glyph-name="clapper-board" unicode="" d="M792 767H208A125 125 0 0 1 83 642V58A125 125 0 0 1 208-67h584A125 125 0 0 1 917 58v584a125 125 0 0 1-125 125zm-122-84L504 517H330l166 166zm-503-41a42 42 0 0 0 41 41h171L212 517h-45zM833 58a42 42 0 0 0-41-41H208a42 42 0 0 0-41 41v375h666zm0 459H621l167 166h4a42 42 0 0 0 41-41z" horiz-adv-x="1000"/><glyph glyph-name="clipboard-alt" unicode="" d="M625 267H375a42 42 0 0 1 0-84h250a42 42 0 0 1 0 84zm0 166H458a42 42 0 0 1 0-83h167a42 42 0 0 1 0 83zm83 250h-49a125 125 0 0 1-117 84h-84a125 125 0 0 1-117-84h-49a125 125 0 0 1-125-125V58A125 125 0 0 1 292-67h416A125 125 0 0 1 833 58v500a125 125 0 0 1-125 125zm-291-41a42 42 0 0 0 41 41h84a42 42 0 0 0 41-41v-42H417zM750 58a42 42 0 0 0-42-41H292a42 42 0 0 0-42 41v500a42 42 0 0 0 42 42h41v-42a42 42 0 0 1 42-41h250a42 42 0 0 1 42 41v42h41a42 42 0 0 0 42-42z" horiz-adv-x="1000"/><glyph glyph-name="clipboard-blank" unicode="" d="M708 683h-41a83 83 0 0 1-84 84H417a83 83 0 0 1-84-84h-41a125 125 0 0 1-125-125V58A125 125 0 0 1 292-67h416A125 125 0 0 1 833 58v500a125 125 0 0 1-125 125zm-291 0h166v-83H417v83zM750 58a42 42 0 0 0-42-41H292a42 42 0 0 0-42 41v500a42 42 0 0 0 42 42h41a83 83 0 0 1 84-83h166a83 83 0 0 1 84 83h41a42 42 0 0 0 42-42z" horiz-adv-x="1000"/><glyph glyph-name="clipboard-notes" unicode="" d="M542 267H375a42 42 0 0 1 0-84h167a42 42 0 0 1 0 84zm166 416h-49a125 125 0 0 1-117 84h-84a125 125 0 0 1-117-84h-49a125 125 0 0 1-125-125V58A125 125 0 0 1 292-67h416A125 125 0 0 1 833 58v500a125 125 0 0 1-125 125zm-291-41a42 42 0 0 0 41 41h84a42 42 0 0 0 41-41v-42H417zM750 58a42 42 0 0 0-42-41H292a42 42 0 0 0-42 41v500a42 42 0 0 0 42 42h41v-42a42 42 0 0 1 42-41h250a42 42 0 0 1 42 41v42h41a42 42 0 0 0 42-42zM625 433H375a42 42 0 0 1 0-83h250a42 42 0 0 1 0 83z" horiz-adv-x="1000"/><glyph glyph-name="clipboard" unicode="" d="M708 683h-49a125 125 0 0 1-117 84h-84a125 125 0 0 1-117-84h-49a125 125 0 0 1-125-125V58A125 125 0 0 1 292-67h416A125 125 0 0 1 833 58v500a125 125 0 0 1-125 125zm-291-41a42 42 0 0 0 41 41h84a42 42 0 0 0 41-41v-42H417zM750 58a42 42 0 0 0-42-41H292a42 42 0 0 0-42 41v500a42 42 0 0 0 42 42h41v-42a42 42 0 0 1 42-41h250a42 42 0 0 1 42 41v42h41a42 42 0 0 0 42-42z" horiz-adv-x="1000"/><glyph glyph-name="clock-eight" unicode="" d="M458 767a417 417 0 1 1 417-417 417 417 0 0 1-417 417zm0-750a333 333 0 1 0 334 333A333 333 0 0 0 458 17zm0 583a42 42 0 0 1-41-42V374l-88-50a42 42 0 0 1 21-78 42 42 0 0 1 21 5l108 63 4 3 7 6a36 36 0 0 1 4 7 37 37 0 0 1 3 7 27 27 0 0 1 2 8l1 5v208a42 42 0 0 1-42 42z" horiz-adv-x="1000"/></font>
</defs>
</svg>
